<svg xmlns="http://www.w3.org/2000/svg" xmlns:xlink="http://www.w3.org/1999/xlink" width="500" zoomAndPan="magnify" viewBox="0 0 375 374.999991" height="500" preserveAspectRatio="xMidYMid meet" version="1.0"><defs><g/><clipPath id="cee17155e4"><path d="M 81 116 L 131 116 L 131 170.675781 L 81 170.675781 Z M 81 116 " clip-rule="nonzero"/></clipPath><clipPath id="5b493f2e79"><path d="M 136 116 L 187 116 L 187 170.675781 L 136 170.675781 Z M 136 116 " clip-rule="nonzero"/></clipPath><clipPath id="18ad03aa41"><path d="M 98 165 L 168 165 L 168 170.675781 L 98 170.675781 Z M 98 165 " clip-rule="nonzero"/></clipPath><clipPath id="5ddb661dac"><path d="M 70 40.175781 L 101 40.175781 L 101 75 L 70 75 Z M 70 40.175781 " clip-rule="nonzero"/></clipPath><clipPath id="f5e90f6cd9"><path d="M 193 75 L 216.9375 75 L 216.9375 93 L 193 93 Z M 193 75 " clip-rule="nonzero"/></clipPath></defs><path fill="#1b136a" d="M 119.890625 120.527344 C 116.300781 120.214844 112.011719 119.378906 111.191406 116.894531 C 110.328125 114.289062 114.261719 111.613281 113.203125 109.402344 C 112.261719 107.445312 108.882812 108.835938 105.96875 106.949219 C 100.601562 103.472656 102.121094 92.292969 102.488281 89.582031 C 103.292969 83.671875 105.382812 79.558594 107.394531 75.6875 C 111.550781 67.683594 116.113281 59.726562 124.519531 56.71875 C 127.804688 55.542969 131.855469 55.496094 137.164062 57.21875 C 155.164062 63.058594 158.089844 63.296875 162.597656 72.847656 C 167.105469 82.398438 165.601562 96.925781 163.386719 104.109375 C 161.175781 111.292969 154.652344 107.773438 159.457031 112.652344 C 160.066406 113.269531 160.175781 113.988281 160.203125 114.050781 C 161.234375 116.433594 144.324219 127.070312 142.667969 128.105469 C 135.152344 125.355469 127.554688 122.828125 119.890625 120.527344 Z M 119.890625 120.527344 " fill-opacity="1" fill-rule="nonzero"/><path fill="#ffaa00" d="M 142.675781 126.535156 L 127.269531 126.535156 L 127.269531 103.007812 L 142.675781 103.007812 Z M 142.675781 126.535156 " fill-opacity="1" fill-rule="nonzero"/><path fill="#ffaa00" d="M 111.875 89.496094 C 112.425781 82.066406 113.644531 74.21875 119.339844 69.371094 C 125.039062 64.519531 133.179688 64.136719 140.636719 64.53125 C 143.484375 64.683594 146.367188 64.964844 149.011719 66.105469 C 151.875 67.34375 154.3125 69.8125 154.710938 72.894531 C 154.785156 73.464844 154.691406 73.996094 154.628906 74.554688 C 157.378906 81.054688 158.726562 88.285156 158.691406 94.835938 C 158.664062 100.640625 157.023438 104.464844 151.175781 108.03125 C 144.765625 111.9375 136.125 113.699219 127.683594 112.003906 C 122.875 111.039062 117.832031 108.964844 114.652344 105.078125 C 110.929688 100.527344 111.445312 95.292969 111.875 89.496094 Z M 111.875 89.496094 " fill-opacity="1" fill-rule="nonzero"/><path fill="#1b136a" d="M 145.777344 88.125 C 145.777344 88.382812 145.730469 88.632812 145.628906 88.871094 C 145.53125 89.113281 145.390625 89.324219 145.207031 89.507812 C 145.023438 89.691406 144.808594 89.832031 144.570312 89.929688 C 144.332031 90.03125 144.082031 90.078125 143.820312 90.078125 C 143.5625 90.078125 143.3125 90.03125 143.070312 89.929688 C 142.832031 89.832031 142.621094 89.691406 142.4375 89.507812 C 142.253906 89.324219 142.113281 89.113281 142.011719 88.871094 C 141.914062 88.632812 141.863281 88.382812 141.863281 88.125 C 141.863281 87.867188 141.914062 87.617188 142.011719 87.378906 C 142.113281 87.136719 142.253906 86.925781 142.4375 86.742188 C 142.621094 86.558594 142.832031 86.417969 143.070312 86.320312 C 143.3125 86.21875 143.5625 86.171875 143.820312 86.171875 C 144.082031 86.171875 144.332031 86.21875 144.570312 86.320312 C 144.808594 86.417969 145.023438 86.558594 145.207031 86.742188 C 145.390625 86.925781 145.53125 87.136719 145.628906 87.378906 C 145.730469 87.617188 145.777344 87.867188 145.777344 88.125 Z M 145.777344 88.125 " fill-opacity="1" fill-rule="nonzero"/><path fill="#1b136a" d="M 128.402344 87.949219 C 128.402344 88.210938 128.351562 88.457031 128.253906 88.699219 C 128.152344 88.9375 128.011719 89.148438 127.828125 89.332031 C 127.644531 89.515625 127.433594 89.65625 127.195312 89.753906 C 126.953125 89.855469 126.703125 89.90625 126.445312 89.90625 C 126.183594 89.90625 125.933594 89.855469 125.695312 89.753906 C 125.457031 89.65625 125.242188 89.515625 125.058594 89.332031 C 124.875 89.148438 124.734375 88.9375 124.636719 88.699219 C 124.535156 88.457031 124.488281 88.210938 124.488281 87.949219 C 124.488281 87.691406 124.535156 87.441406 124.636719 87.203125 C 124.734375 86.960938 124.875 86.75 125.058594 86.566406 C 125.242188 86.386719 125.457031 86.242188 125.695312 86.144531 C 125.933594 86.046875 126.183594 85.996094 126.445312 85.996094 C 126.703125 85.996094 126.953125 86.046875 127.195312 86.144531 C 127.433594 86.242188 127.644531 86.386719 127.828125 86.566406 C 128.011719 86.75 128.152344 86.960938 128.253906 87.203125 C 128.351562 87.441406 128.402344 87.691406 128.402344 87.949219 Z M 128.402344 87.949219 " fill-opacity="1" fill-rule="nonzero"/><path fill="#1b136a" d="M 124.59375 82.65625 C 124.945312 82.421875 125.285156 82.269531 125.714844 82.230469 C 126.765625 82.132812 128.296875 82.386719 129.117188 83.054688 C 129.5 83.363281 129.128906 83.816406 128.820312 83.695312 C 128.277344 83.480469 127.355469 82.914062 125.777344 83.058594 C 125.410156 83.09375 125.058594 83.074219 124.691406 83.074219 C 124.453125 83.070312 124.425781 82.773438 124.59375 82.65625 Z M 124.59375 82.65625 " fill-opacity="1" fill-rule="nonzero"/><path fill="#1b136a" d="M 142 83.675781 C 141.894531 83.671875 141.839844 83.546875 141.875 83.457031 C 141.867188 83.472656 141.882812 83.328125 141.886719 83.316406 C 141.949219 83.140625 142.074219 83.0625 142.222656 82.957031 C 143.398438 82.121094 145.621094 82.070312 146.382812 82.769531 C 146.570312 82.941406 146.519531 83.300781 146.226562 83.324219 C 145.496094 83.382812 144.726562 82.980469 143.074219 83.472656 C 142.457031 83.65625 142.34375 83.769531 142.125 83.726562 C 142.101562 83.722656 141.933594 83.671875 142 83.675781 Z M 142 83.675781 " fill-opacity="1" fill-rule="nonzero"/><path fill="#1b136a" d="M 136.765625 92.15625 C 136.222656 91.289062 135.5625 91.085938 135.039062 89.976562 C 134.832031 89.535156 134.710938 89.035156 134.671875 88.550781 C 134.652344 88.304688 134.664062 88.0625 134.675781 87.816406 C 134.691406 87.410156 134.632812 87.3125 134.65625 87.242188 C 134.714844 87.039062 134.398438 86.953125 134.335938 87.15625 C 134.320312 87.210938 134.257812 87.234375 134.230469 87.28125 C 134.171875 87.371094 134.128906 87.492188 134.089844 87.59375 C 134.019531 87.792969 134 88.023438 133.980469 88.234375 C 133.871094 89.433594 134.265625 90.707031 135.253906 91.78125 C 135.78125 92.355469 136.539062 93.015625 135.925781 93.820312 C 135.300781 94.644531 134.226562 94.433594 133.378906 94.792969 C 133.105469 94.90625 133.0625 95.292969 133.378906 95.394531 C 134.351562 95.703125 135.628906 95.375 136.375 94.683594 C 137.089844 94.015625 137.292969 93 136.765625 92.15625 Z M 136.765625 92.15625 " fill-opacity="1" fill-rule="nonzero"/><path fill="#1b136a" d="M 127.765625 111.429688 C 128.273438 111.242188 128.894531 111.625 129.367188 111.789062 C 133.460938 113.199219 137.015625 112.910156 141.078125 111.734375 C 141.464844 111.621094 141.738281 112.21875 141.355469 112.398438 C 137.765625 114.089844 132.863281 114.054688 128.992188 112.691406 C 128.46875 112.507812 127.792969 112.347656 127.5625 111.785156 C 127.5 111.632812 127.632812 111.476562 127.765625 111.429688 Z M 127.765625 111.429688 " fill-opacity="1" fill-rule="nonzero"/><path fill="#ff6a00" d="M 154.257812 92.796875 C 154.257812 93.15625 154.160156 93.5 153.96875 93.835938 C 153.777344 94.167969 153.503906 94.460938 153.148438 94.714844 C 152.796875 94.96875 152.386719 95.167969 151.921875 95.304688 C 151.460938 95.441406 150.976562 95.511719 150.476562 95.511719 C 149.972656 95.511719 149.492188 95.441406 149.027344 95.304688 C 148.566406 95.167969 148.15625 94.96875 147.800781 94.714844 C 147.445312 94.460938 147.171875 94.167969 146.980469 93.835938 C 146.789062 93.5 146.695312 93.15625 146.695312 92.796875 C 146.695312 92.433594 146.789062 92.089844 146.980469 91.757812 C 147.171875 91.421875 147.445312 91.128906 147.800781 90.875 C 148.15625 90.621094 148.566406 90.425781 149.027344 90.285156 C 149.492188 90.148438 149.972656 90.078125 150.476562 90.078125 C 150.976562 90.078125 151.460938 90.148438 151.921875 90.285156 C 152.386719 90.425781 152.796875 90.621094 153.148438 90.875 C 153.503906 91.128906 153.777344 91.421875 153.96875 91.757812 C 154.160156 92.089844 154.257812 92.433594 154.257812 92.796875 Z M 154.257812 92.796875 " fill-opacity="1" fill-rule="nonzero"/><path fill="#ff6a00" d="M 124.488281 92.796875 C 124.488281 93.15625 124.390625 93.5 124.199219 93.835938 C 124.007812 94.167969 123.734375 94.460938 123.378906 94.714844 C 123.023438 94.96875 122.617188 95.167969 122.152344 95.304688 C 121.6875 95.441406 121.207031 95.511719 120.703125 95.511719 C 120.203125 95.511719 119.722656 95.441406 119.257812 95.304688 C 118.792969 95.167969 118.386719 94.96875 118.03125 94.714844 C 117.675781 94.460938 117.402344 94.167969 117.210938 93.835938 C 117.019531 93.5 116.921875 93.15625 116.921875 92.796875 C 116.921875 92.433594 117.019531 92.089844 117.210938 91.757812 C 117.402344 91.421875 117.675781 91.128906 118.03125 90.875 C 118.386719 90.621094 118.792969 90.425781 119.257812 90.285156 C 119.722656 90.148438 120.203125 90.078125 120.703125 90.078125 C 121.207031 90.078125 121.6875 90.148438 122.152344 90.285156 C 122.617188 90.425781 123.023438 90.621094 123.378906 90.875 C 123.734375 91.128906 124.007812 91.421875 124.199219 91.757812 C 124.390625 92.089844 124.488281 92.433594 124.488281 92.796875 Z M 124.488281 92.796875 " fill-opacity="1" fill-rule="nonzero"/><g clip-path="url(#cee17155e4)"><path fill="#4a53e2" d="M 130.855469 118.582031 C 127.382812 117.375 120.460938 115.554688 112.613281 117.6875 C 102.882812 120.328125 97.777344 127.398438 92.367188 134.894531 C 84.253906 146.128906 78.101562 161.679688 82.621094 166.765625 C 83.15625 167.367188 83.960938 167.960938 84.035156 168.015625 C 87.679688 170.675781 92.058594 170.152344 96.261719 169.761719 C 99.796875 169.433594 104.816406 169.054688 111.347656 168.839844 C 125.703125 132.757812 121.34375 144.023438 130.855469 118.582031 Z M 130.855469 118.582031 " fill-opacity="1" fill-rule="nonzero"/></g><g clip-path="url(#5b493f2e79)"><path fill="#4a53e2" d="M 136.625 118.582031 C 140.097656 117.375 147.019531 115.554688 154.867188 117.6875 C 164.597656 120.328125 169.699219 127.398438 175.113281 134.894531 C 183.226562 146.128906 189.375 161.679688 184.859375 166.765625 C 184.324219 167.367188 183.519531 167.960938 183.445312 168.015625 C 179.800781 170.675781 175.421875 170.152344 171.21875 169.761719 C 167.683594 169.433594 162.664062 169.054688 156.132812 168.839844 C 141.777344 132.757812 146.132812 144.023438 136.625 118.582031 Z M 136.625 118.582031 " fill-opacity="1" fill-rule="nonzero"/></g><path fill="#4a53e2" d="M 116.921875 122.683594 L 157.40625 122.683594 L 157.40625 168.210938 L 116.921875 168.210938 Z M 116.921875 122.683594 " fill-opacity="1" fill-rule="nonzero"/><path fill="#ffaa00" d="M 127.269531 117.542969 C 127.269531 117.542969 128.535156 126.824219 134.230469 126.402344 C 139.925781 125.984375 142.675781 116.703125 142.675781 116.703125 L 133.15625 116.441406 Z M 127.269531 117.542969 " fill-opacity="1" fill-rule="nonzero"/><path fill="#1b136a" d="M 108.328125 83.246094 C 108.328125 83.246094 111.492188 85.464844 115.640625 82.972656 C 119.785156 80.476562 123.054688 68.953125 123.054688 68.953125 C 123.054688 68.953125 127.929688 66.058594 132.898438 70.847656 C 137.871094 75.636719 143.078125 75.375 143.820312 71.585938 C 143.820312 71.585938 148.550781 79.285156 151.417969 75.269531 C 151.417969 75.269531 151.148438 88.199219 159.429688 82.785156 C 159.429688 82.785156 156.484375 76.269531 157.40625 72.636719 C 158.328125 69.003906 150.578125 63.847656 140.558594 62.113281 C 130.539062 60.375 122.316406 63.742188 118.414062 66.847656 C 114.511719 69.953125 108.328125 83.246094 108.328125 83.246094 Z M 108.328125 83.246094 " fill-opacity="1" fill-rule="nonzero"/><path fill="#ffaa00" d="M 164.605469 87.949219 C 164.605469 88.289062 164.570312 88.625 164.503906 88.957031 C 164.4375 89.289062 164.339844 89.613281 164.210938 89.925781 C 164.082031 90.238281 163.921875 90.539062 163.734375 90.820312 C 163.542969 91.101562 163.328125 91.363281 163.089844 91.601562 C 162.847656 91.839844 162.585938 92.054688 162.304688 92.242188 C 162.023438 92.433594 161.726562 92.589844 161.410156 92.722656 C 161.097656 92.851562 160.773438 92.949219 160.441406 93.015625 C 160.105469 93.082031 159.769531 93.113281 159.429688 93.113281 C 159.089844 93.113281 158.753906 93.082031 158.421875 93.015625 C 158.089844 92.949219 157.765625 92.851562 157.449219 92.722656 C 157.136719 92.589844 156.839844 92.433594 156.554688 92.242188 C 156.273438 92.054688 156.011719 91.839844 155.773438 91.601562 C 155.53125 91.363281 155.316406 91.101562 155.128906 90.820312 C 154.941406 90.539062 154.78125 90.238281 154.652344 89.925781 C 154.519531 89.613281 154.421875 89.289062 154.355469 88.957031 C 154.289062 88.625 154.257812 88.289062 154.257812 87.949219 C 154.257812 87.609375 154.289062 87.273438 154.355469 86.941406 C 154.421875 86.609375 154.519531 86.289062 154.652344 85.972656 C 154.78125 85.660156 154.941406 85.363281 155.128906 85.082031 C 155.316406 84.800781 155.53125 84.539062 155.773438 84.296875 C 156.011719 84.058594 156.273438 83.84375 156.554688 83.65625 C 156.839844 83.46875 157.136719 83.308594 157.449219 83.179688 C 157.765625 83.050781 158.089844 82.953125 158.421875 82.886719 C 158.753906 82.820312 159.089844 82.785156 159.429688 82.785156 C 159.769531 82.785156 160.105469 82.820312 160.441406 82.886719 C 160.773438 82.953125 161.097656 83.050781 161.410156 83.179688 C 161.726562 83.308594 162.023438 83.46875 162.304688 83.65625 C 162.585938 83.84375 162.847656 84.058594 163.089844 84.296875 C 163.328125 84.539062 163.542969 84.800781 163.734375 85.082031 C 163.921875 85.363281 164.082031 85.660156 164.210938 85.972656 C 164.339844 86.289062 164.4375 86.609375 164.503906 86.941406 C 164.570312 87.273438 164.605469 87.609375 164.605469 87.949219 Z M 164.605469 87.949219 " fill-opacity="1" fill-rule="nonzero"/><path fill="#ffaa00" d="M 115.640625 87.949219 C 115.640625 88.289062 115.605469 88.625 115.539062 88.957031 C 115.472656 89.289062 115.375 89.613281 115.246094 89.925781 C 115.113281 90.238281 114.957031 90.539062 114.765625 90.820312 C 114.578125 91.101562 114.363281 91.363281 114.125 91.601562 C 113.882812 91.839844 113.621094 92.054688 113.339844 92.242188 C 113.058594 92.433594 112.757812 92.589844 112.445312 92.722656 C 112.132812 92.851562 111.808594 92.949219 111.472656 93.015625 C 111.140625 93.082031 110.804688 93.113281 110.464844 93.113281 C 110.125 93.113281 109.789062 93.082031 109.457031 93.015625 C 109.121094 92.949219 108.800781 92.851562 108.484375 92.722656 C 108.171875 92.589844 107.875 92.433594 107.589844 92.242188 C 107.308594 92.054688 107.046875 91.839844 106.804688 91.601562 C 106.566406 91.363281 106.351562 91.101562 106.164062 90.820312 C 105.972656 90.539062 105.816406 90.238281 105.683594 89.925781 C 105.554688 89.613281 105.457031 89.289062 105.390625 88.957031 C 105.324219 88.625 105.292969 88.289062 105.292969 87.949219 C 105.292969 87.609375 105.324219 87.273438 105.390625 86.941406 C 105.457031 86.609375 105.554688 86.289062 105.683594 85.972656 C 105.816406 85.660156 105.972656 85.363281 106.164062 85.082031 C 106.351562 84.800781 106.566406 84.539062 106.804688 84.296875 C 107.046875 84.058594 107.308594 83.84375 107.589844 83.65625 C 107.875 83.46875 108.171875 83.308594 108.484375 83.179688 C 108.800781 83.050781 109.121094 82.953125 109.457031 82.886719 C 109.789062 82.820312 110.125 82.785156 110.464844 82.785156 C 110.804688 82.785156 111.140625 82.820312 111.472656 82.886719 C 111.808594 82.953125 112.132812 83.050781 112.445312 83.179688 C 112.757812 83.308594 113.058594 83.46875 113.339844 83.65625 C 113.621094 83.84375 113.882812 84.058594 114.125 84.296875 C 114.363281 84.539062 114.578125 84.800781 114.765625 85.082031 C 114.957031 85.363281 115.113281 85.660156 115.246094 85.972656 C 115.375 86.289062 115.472656 86.609375 115.539062 86.941406 C 115.605469 87.273438 115.640625 87.609375 115.640625 87.949219 Z M 115.640625 87.949219 " fill-opacity="1" fill-rule="nonzero"/><path fill="#1b136a" d="M 108.910156 84.789062 C 109.839844 84.402344 110.980469 84.722656 111.738281 85.335938 C 112.53125 85.976562 112.949219 87.03125 112.871094 88.03125 C 112.847656 88.28125 112.582031 88.394531 112.390625 88.230469 C 111.96875 87.871094 111.222656 87.972656 110.921875 88.441406 C 110.597656 88.941406 110.875 89.570312 111.332031 89.867188 C 111.589844 90.035156 111.429688 90.519531 111.109375 90.394531 C 110.253906 90.054688 109.917969 88.878906 110.429688 88.117188 C 110.839844 87.503906 111.640625 87.316406 112.300781 87.554688 C 112.234375 86.863281 111.917969 86.214844 111.375 85.753906 C 110.695312 85.175781 109.820312 85.082031 108.960938 85.167969 C 108.722656 85.191406 108.726562 84.867188 108.910156 84.789062 Z M 108.910156 84.789062 " fill-opacity="1" fill-rule="nonzero"/><path fill="#1b136a" d="M 161.375 84.789062 C 160.441406 84.402344 159.304688 84.722656 158.542969 85.335938 C 157.753906 85.976562 157.335938 87.03125 157.414062 88.03125 C 157.433594 88.28125 157.703125 88.394531 157.894531 88.230469 C 158.316406 87.871094 159.0625 87.972656 159.363281 88.441406 C 159.683594 88.941406 159.40625 89.570312 158.953125 89.867188 C 158.695312 90.035156 158.851562 90.519531 159.171875 90.394531 C 160.027344 90.054688 160.367188 88.878906 159.855469 88.117188 C 159.441406 87.503906 158.644531 87.316406 157.984375 87.554688 C 158.046875 86.863281 158.367188 86.214844 158.90625 85.753906 C 159.589844 85.175781 160.464844 85.082031 161.324219 85.167969 C 161.558594 85.191406 161.554688 84.867188 161.375 84.789062 Z M 161.375 84.789062 " fill-opacity="1" fill-rule="nonzero"/><path fill="#4a53e2" d="M 124.488281 63.53125 C 119.117188 72.265625 116.222656 79.378906 114.617188 84.058594 C 114.21875 85.214844 113.484375 87.613281 112.824219 90.792969 C 111.367188 97.832031 110.054688 104.148438 112.929688 108.476562 C 115.023438 111.625 117.632812 111.164062 122.105469 113.738281 C 126.109375 116.046875 131.09375 120.492188 134.863281 129.949219 C 128.078125 127.109375 121.296875 124.269531 114.511719 121.429688 C 114.511719 121.429688 108.433594 119.84375 109.179688 114.210938 C 109.925781 108.582031 99.195312 110.6875 99.261719 98.425781 C 99.328125 86.160156 110.03125 64.636719 119.308594 56.847656 C 128.589844 49.058594 143.40625 55.742188 151.945312 59.953125 C 160.488281 64.164062 165.839844 70.742188 166.539062 78.480469 C 167.238281 86.214844 167.667969 102.792969 164.605469 107.160156 C 161.542969 111.527344 161.964844 110.066406 163.863281 113.691406 C 165.761719 117.316406 145.304688 123.789062 145.304688 123.789062 L 133.765625 129.054688 C 134.25 126.691406 135.304688 123.085938 137.921875 119.632812 C 144.53125 110.914062 153.144531 113.667969 157.21875 106.582031 C 159.421875 102.75 158.160156 96.554688 155.636719 84.164062 C 155.324219 82.621094 154.757812 80.203125 152.894531 77.953125 C 151.761719 76.578125 150.828125 76.566406 150.074219 75.398438 C 148.261719 72.597656 149.261719 69.308594 146.695312 65.320312 C 143.300781 60.058594 132.933594 57.105469 124.488281 63.53125 Z M 124.488281 63.53125 " fill-opacity="1" fill-rule="nonzero"/><path fill="#1b136a" d="M 162.433594 169.839844 L 103.367188 169.839844 L 99.261719 126.265625 L 166.539062 126.265625 Z M 162.433594 169.839844 " fill-opacity="1" fill-rule="nonzero"/><g clip-path="url(#18ad03aa41)"><path fill="#1b136a" d="M 98.074219 165.261719 L 167.726562 165.261719 L 167.726562 170.082031 L 98.074219 170.082031 Z M 98.074219 165.261719 " fill-opacity="1" fill-rule="nonzero"/></g><path fill="#1b136a" d="M 158.199219 75.335938 C 157.621094 73.558594 156.726562 71.917969 155.570312 70.453125 C 157.339844 66.949219 155.621094 62.738281 151.664062 61.582031 C 150.714844 61.304688 149.730469 61.183594 148.789062 60.878906 C 146.660156 60.1875 146.070312 58.34375 144.257812 57.507812 C 142.054688 56.496094 139.3125 57.121094 137.792969 58.972656 C 136.753906 57.90625 135.277344 57.429688 133.777344 57.476562 C 130.816406 57.574219 128.554688 59.613281 126.558594 61.71875 C 125.871094 62.445312 125.09375 63.175781 124.65625 64.089844 C 123.859375 65.75 124.457031 67.464844 126.289062 67.839844 C 127.984375 68.1875 129.945312 67.503906 130.925781 68.652344 C 131.097656 68.859375 131.332031 68.804688 131.472656 68.648438 C 132.140625 69.453125 132.824219 70.242188 133.515625 71.027344 C 136.476562 74.402344 138.25 76.421875 140.550781 76.925781 C 141.832031 77.203125 143.300781 77.007812 144.242188 76.023438 C 144.800781 75.4375 145.136719 74.648438 145.136719 73.863281 C 146.082031 75.03125 146.65625 76.539062 148.058594 77.265625 C 149.148438 77.828125 150.28125 77.578125 150.953125 76.902344 C 151.167969 78.175781 151.488281 79.449219 152.210938 80.53125 C 154.011719 83.214844 157.949219 83.253906 158.726562 80.25 C 159.140625 78.667969 158.695312 76.851562 158.199219 75.335938 Z M 158.199219 75.335938 " fill-opacity="1" fill-rule="nonzero"/><path fill="#1b136a" d="M 131.765625 89.535156 C 131.765625 89.898438 131.730469 90.257812 131.660156 90.613281 C 131.589844 90.96875 131.484375 91.3125 131.34375 91.648438 C 131.207031 91.984375 131.035156 92.300781 130.832031 92.605469 C 130.632812 92.90625 130.402344 93.183594 130.144531 93.441406 C 129.890625 93.695312 129.609375 93.925781 129.308594 94.125 C 129.003906 94.328125 128.6875 94.496094 128.351562 94.636719 C 128.015625 94.773438 127.671875 94.878906 127.3125 94.949219 C 126.957031 95.019531 126.597656 95.058594 126.234375 95.058594 C 125.871094 95.058594 125.511719 95.019531 125.15625 94.949219 C 124.800781 94.878906 124.453125 94.773438 124.117188 94.636719 C 123.785156 94.496094 123.464844 94.328125 123.164062 94.125 C 122.859375 93.925781 122.582031 93.695312 122.324219 93.441406 C 122.066406 93.183594 121.839844 92.90625 121.636719 92.605469 C 121.433594 92.300781 121.265625 91.984375 121.125 91.648438 C 120.988281 91.3125 120.882812 90.96875 120.8125 90.613281 C 120.742188 90.257812 120.703125 89.898438 120.703125 89.535156 C 120.703125 89.175781 120.742188 88.816406 120.8125 88.460938 C 120.882812 88.105469 120.988281 87.757812 121.125 87.425781 C 121.265625 87.089844 121.433594 86.773438 121.636719 86.46875 C 121.839844 86.167969 122.066406 85.890625 122.324219 85.632812 C 122.582031 85.378906 122.859375 85.148438 123.164062 84.945312 C 123.464844 84.746094 123.785156 84.574219 124.117188 84.4375 C 124.453125 84.296875 124.800781 84.195312 125.15625 84.121094 C 125.511719 84.050781 125.871094 84.015625 126.234375 84.015625 C 126.597656 84.015625 126.957031 84.050781 127.3125 84.121094 C 127.671875 84.195312 128.015625 84.296875 128.351562 84.4375 C 128.6875 84.574219 129.003906 84.746094 129.308594 84.945312 C 129.609375 85.148438 129.890625 85.378906 130.144531 85.632812 C 130.402344 85.890625 130.632812 86.167969 130.832031 86.46875 C 131.035156 86.773438 131.207031 87.089844 131.34375 87.425781 C 131.484375 87.757812 131.589844 88.105469 131.660156 88.460938 C 131.730469 88.816406 131.765625 89.175781 131.765625 89.535156 Z M 131.765625 89.535156 " fill-opacity="1" fill-rule="nonzero"/><path fill="#1b136a" d="M 148.34375 89.535156 C 148.34375 89.898438 148.308594 90.257812 148.238281 90.613281 C 148.167969 90.96875 148.0625 91.3125 147.921875 91.648438 C 147.785156 91.984375 147.613281 92.300781 147.414062 92.605469 C 147.210938 92.90625 146.980469 93.183594 146.726562 93.441406 C 146.46875 93.695312 146.1875 93.925781 145.886719 94.125 C 145.585938 94.328125 145.265625 94.496094 144.929688 94.636719 C 144.59375 94.773438 144.25 94.878906 143.894531 94.949219 C 143.539062 95.019531 143.175781 95.058594 142.816406 95.058594 C 142.453125 95.058594 142.089844 95.019531 141.734375 94.949219 C 141.378906 94.878906 141.035156 94.773438 140.699219 94.636719 C 140.363281 94.496094 140.042969 94.328125 139.742188 94.125 C 139.441406 93.925781 139.160156 93.695312 138.902344 93.441406 C 138.648438 93.183594 138.417969 92.90625 138.214844 92.605469 C 138.015625 92.300781 137.84375 91.984375 137.707031 91.648438 C 137.566406 91.3125 137.460938 90.96875 137.390625 90.613281 C 137.320312 90.257812 137.285156 89.898438 137.285156 89.535156 C 137.285156 89.175781 137.320312 88.816406 137.390625 88.460938 C 137.460938 88.105469 137.566406 87.757812 137.707031 87.425781 C 137.84375 87.089844 138.015625 86.773438 138.214844 86.46875 C 138.417969 86.167969 138.648438 85.890625 138.902344 85.632812 C 139.160156 85.378906 139.441406 85.148438 139.742188 84.945312 C 140.042969 84.746094 140.363281 84.574219 140.699219 84.4375 C 141.035156 84.296875 141.378906 84.195312 141.734375 84.121094 C 142.089844 84.050781 142.453125 84.015625 142.816406 84.015625 C 143.175781 84.015625 143.539062 84.050781 143.894531 84.121094 C 144.25 84.195312 144.59375 84.296875 144.929688 84.4375 C 145.265625 84.574219 145.585938 84.746094 145.886719 84.945312 C 146.1875 85.148438 146.46875 85.378906 146.726562 85.632812 C 146.980469 85.890625 147.210938 86.167969 147.414062 86.46875 C 147.613281 86.773438 147.785156 87.089844 147.925781 87.425781 C 148.0625 87.757812 148.167969 88.105469 148.238281 88.460938 C 148.308594 88.816406 148.34375 89.175781 148.34375 89.535156 Z M 148.34375 89.535156 " fill-opacity="1" fill-rule="nonzero"/><path fill="#1b136a" d="M 139.03125 89.746094 C 138.621094 89.128906 137.621094 88.773438 136.941406 88.546875 C 136.121094 88.273438 135.238281 88.144531 134.371094 88.191406 C 132.125 88.316406 130.304688 89.542969 130.03125 90.109375 C 129.9375 90.308594 130.097656 90.578125 130.335938 90.503906 C 130.773438 90.375 131.171875 89.890625 132.25 89.453125 C 133.65625 88.875 135.171875 88.828125 136.59375 89.269531 C 137.847656 89.660156 138.128906 90.109375 138.640625 90.253906 C 138.917969 90.335938 139.203125 90 139.03125 89.746094 Z M 139.03125 89.746094 " fill-opacity="1" fill-rule="nonzero"/><path fill="#1b136a" d="M 132.328125 101.816406 C 132.328125 102.242188 132.269531 102.648438 132.152344 103.039062 C 132.03125 103.433594 131.863281 103.777344 131.648438 104.078125 C 131.429688 104.378906 131.179688 104.609375 130.894531 104.773438 C 130.609375 104.933594 130.3125 105.015625 130.003906 105.015625 C 129.695312 105.015625 129.398438 104.933594 129.113281 104.773438 C 128.828125 104.609375 128.578125 104.378906 128.359375 104.078125 C 128.140625 103.777344 127.972656 103.433594 127.855469 103.039062 C 127.738281 102.648438 127.679688 102.242188 127.679688 101.816406 C 127.679688 101.390625 127.738281 100.984375 127.855469 100.59375 C 127.972656 100.199219 128.140625 99.855469 128.359375 99.554688 C 128.578125 99.253906 128.828125 99.023438 129.113281 98.859375 C 129.398438 98.699219 129.695312 98.617188 130.003906 98.617188 C 130.3125 98.617188 130.609375 98.699219 130.894531 98.859375 C 131.179688 99.023438 131.429688 99.253906 131.648438 99.554688 C 131.863281 99.855469 132.03125 100.199219 132.152344 100.59375 C 132.269531 100.984375 132.328125 101.390625 132.328125 101.816406 Z M 132.328125 101.816406 " fill-opacity="1" fill-rule="nonzero"/><path fill="#e5e5ff" d="M 139.015625 147.839844 C 139.015625 148.242188 138.976562 148.640625 138.898438 149.03125 C 138.820312 149.425781 138.703125 149.808594 138.550781 150.175781 C 138.398438 150.546875 138.207031 150.898438 137.984375 151.234375 C 137.761719 151.566406 137.507812 151.875 137.222656 152.15625 C 136.941406 152.441406 136.632812 152.695312 136.296875 152.917969 C 135.964844 153.140625 135.609375 153.328125 135.242188 153.480469 C 134.871094 153.632812 134.488281 153.75 134.09375 153.828125 C 133.699219 153.90625 133.300781 153.945312 132.898438 153.945312 C 132.5 153.945312 132.101562 153.90625 131.707031 153.828125 C 131.3125 153.75 130.929688 153.632812 130.558594 153.480469 C 130.1875 153.328125 129.835938 153.140625 129.5 152.917969 C 129.167969 152.695312 128.859375 152.441406 128.574219 152.15625 C 128.289062 151.875 128.039062 151.566406 127.8125 151.234375 C 127.589844 150.898438 127.402344 150.546875 127.25 150.175781 C 127.09375 149.808594 126.980469 149.425781 126.902344 149.03125 C 126.824219 148.640625 126.785156 148.242188 126.785156 147.839844 C 126.785156 147.441406 126.824219 147.042969 126.902344 146.648438 C 126.980469 146.257812 127.09375 145.875 127.25 145.503906 C 127.402344 145.132812 127.589844 144.78125 127.8125 144.449219 C 128.039062 144.117188 128.289062 143.808594 128.574219 143.523438 C 128.859375 143.242188 129.167969 142.988281 129.5 142.765625 C 129.835938 142.542969 130.1875 142.355469 130.558594 142.199219 C 130.929688 142.046875 131.3125 141.933594 131.707031 141.851562 C 132.101562 141.773438 132.5 141.734375 132.898438 141.734375 C 133.300781 141.734375 133.699219 141.773438 134.09375 141.851562 C 134.488281 141.933594 134.871094 142.046875 135.242188 142.199219 C 135.609375 142.355469 135.964844 142.542969 136.296875 142.765625 C 136.632812 142.988281 136.941406 143.242188 137.222656 143.523438 C 137.507812 143.808594 137.761719 144.117188 137.984375 144.449219 C 138.207031 144.78125 138.398438 145.132812 138.550781 145.503906 C 138.703125 145.875 138.820312 146.257812 138.898438 146.648438 C 138.976562 147.042969 139.015625 147.441406 139.015625 147.839844 Z M 139.015625 147.839844 " fill-opacity="1" fill-rule="nonzero"/><path fill="#e5e5ff" d="M 215.4375 76.058594 C 215.558594 70.792969 215.25 65.886719 211.207031 62.476562 C 207.597656 59.433594 202.214844 58.609375 197.539062 58.167969 C 191.246094 57.574219 184.792969 57.949219 180.117188 58.824219 C 177.863281 59.242188 175.578125 59.894531 173.601562 61.089844 C 171.605469 62.300781 170.042969 64.054688 169.246094 66.261719 C 168.425781 68.546875 168.457031 71.03125 168.757812 73.414062 C 168.144531 77.710938 169.046875 82.230469 171.667969 85.753906 C 173.441406 88.132812 175.894531 89.800781 178.597656 90.921875 C 177.195312 93.285156 175.09375 94.78125 172.832031 95.347656 C 172.183594 95.507812 172.328125 96.339844 172.921875 96.445312 C 177.109375 97.171875 181.683594 96.003906 185.101562 92.589844 C 188.015625 92.957031 190.964844 92.929688 193.898438 92.835938 C 196.800781 92.742188 199.738281 92.695312 202.613281 92.21875 C 209.242188 91.109375 212.804688 87.800781 214.273438 83.820312 C 215.183594 81.347656 215.375 78.667969 215.4375 76.058594 Z M 215.4375 76.058594 " fill-opacity="1" fill-rule="nonzero"/><path fill="#e5e5ff" d="M 67.050781 64.300781 C 66.949219 59.984375 67.199219 55.960938 70.515625 53.164062 C 73.472656 50.671875 77.886719 49.996094 81.71875 49.632812 C 86.878906 49.148438 92.167969 49.453125 96.003906 50.171875 C 103.683594 51.605469 106.136719 55.648438 105.3125 62.132812 C 105.816406 65.65625 105.078125 69.359375 102.929688 72.25 C 101.476562 74.199219 99.464844 75.566406 97.246094 76.484375 C 98.398438 78.421875 100.121094 79.648438 101.976562 80.113281 C 102.503906 80.242188 102.390625 80.925781 101.898438 81.011719 C 98.46875 81.605469 94.71875 80.652344 91.914062 77.851562 C 89.527344 78.152344 87.109375 78.128906 84.707031 78.054688 C 82.324219 77.976562 79.917969 77.941406 77.5625 77.546875 C 72.125 76.636719 69.207031 73.925781 68 70.660156 C 67.253906 68.636719 67.097656 66.4375 67.050781 64.300781 Z M 67.050781 64.300781 " fill-opacity="1" fill-rule="nonzero"/><g clip-path="url(#5ddb661dac)"><path fill="#4a53e2" d="M 94.0625 44.671875 L 91.265625 48.160156 L 93.917969 49.285156 L 87.652344 55.484375 L 90.871094 49.398438 L 87.652344 49.0625 L 90.5 43.164062 C 88.953125 42.378906 87.375 41.402344 85.828125 40.171875 C 80.140625 44.691406 73.976562 45.847656 70.894531 46.140625 L 71.445312 58.738281 C 71.671875 63.957031 74.664062 68.664062 79.316406 71.3125 C 81.308594 72.445312 83.285156 73.570312 85.25 74.6875 C 87.328125 73.558594 89.421875 72.421875 91.53125 71.277344 C 96.355469 68.65625 99.480469 63.855469 99.710938 58.511719 L 100.253906 46.085938 C 98.691406 45.90625 96.507812 45.515625 94.0625 44.671875 Z M 94.0625 44.671875 " fill-opacity="1" fill-rule="nonzero"/></g><path fill="#b4b2fa" d="M 92.773438 46.28125 L 91.265625 48.160156 L 93.917969 49.285156 L 87.652344 55.484375 L 90.871094 49.398438 L 87.652344 49.0625 L 89.648438 44.921875 C 88.371094 44.261719 87.070312 43.445312 85.792969 42.433594 C 80.851562 46.359375 75.496094 47.363281 72.816406 47.617188 L 73.292969 58.566406 C 73.492188 63.101562 76.09375 67.191406 80.136719 69.492188 C 81.867188 70.480469 83.585938 71.457031 85.292969 72.429688 C 87.097656 71.445312 88.917969 70.457031 90.753906 69.464844 C 94.941406 67.1875 97.660156 63.015625 97.863281 58.367188 L 98.332031 47.570312 C 96.933594 47.414062 94.972656 47.058594 92.773438 46.28125 Z M 92.773438 46.28125 " fill-opacity="1" fill-rule="nonzero"/><path fill="#ff6a00" d="M 169.375 82.894531 C 167.710938 82.894531 166.699219 81.066406 167.585938 79.660156 L 187.644531 47.929688 C 188.472656 46.617188 190.390625 46.617188 191.21875 47.929688 L 211.277344 79.660156 C 212.164062 81.066406 211.152344 82.894531 209.492188 82.894531 Z M 169.375 82.894531 " fill-opacity="1" fill-rule="nonzero"/><path fill="#ffaa00" d="M 171.769531 80.75 C 170.304688 80.75 169.414062 79.136719 170.195312 77.902344 L 187.859375 49.957031 C 188.589844 48.804688 190.273438 48.804688 191.003906 49.957031 L 208.667969 77.902344 C 209.449219 79.136719 208.558594 80.75 207.097656 80.75 Z M 171.769531 80.75 " fill-opacity="1" fill-rule="nonzero"/><path fill="#1b136a" d="M 191.84375 75.480469 C 191.722656 75.054688 191.507812 74.6875 191.199219 74.378906 C 191.03125 74.246094 190.863281 74.117188 190.695312 73.988281 C 190.035156 73.605469 189.140625 73.507812 188.46875 73.863281 C 188.160156 73.960938 187.890625 74.132812 187.664062 74.378906 C 187.421875 74.605469 187.246094 74.871094 187.148438 75.179688 C 186.992188 75.476562 186.917969 75.796875 186.933594 76.140625 L 187.019531 76.804688 C 187.140625 77.226562 187.355469 77.59375 187.664062 77.90625 L 188.171875 78.296875 C 188.828125 78.679688 189.722656 78.777344 190.394531 78.421875 C 190.707031 78.320312 190.972656 78.148438 191.199219 77.90625 C 191.445312 77.679688 191.617188 77.414062 191.714844 77.105469 C 191.875 76.804688 191.945312 76.484375 191.933594 76.140625 Z M 191.84375 75.480469 " fill-opacity="1" fill-rule="nonzero"/><path fill="#1b136a" d="M 187.84375 53.675781 C 188.070312 56.566406 187.890625 57.855469 187.777344 67.425781 C 187.757812 68.820312 187.578125 70.4375 188.085938 71.753906 C 188.527344 72.902344 189.929688 72.855469 190.386719 71.753906 C 190.929688 70.457031 190.785156 68.816406 190.808594 67.425781 C 190.960938 57.828125 190.816406 56.566406 191.125 53.675781 C 191.34375 51.59375 187.679688 51.550781 187.84375 53.675781 Z M 187.84375 53.675781 " fill-opacity="1" fill-rule="nonzero"/><path fill="#1b136a" d="M 80.472656 68.507812 C 79.976562 68.0625 79.480469 67.964844 78.234375 66.828125 C 75.214844 64.074219 73.65625 60.222656 73.714844 56.402344 C 73.71875 56.164062 73.363281 56.171875 73.347656 56.402344 C 73.042969 60.769531 75.125 65.308594 78.804688 68.082031 C 79.226562 68.402344 79.699219 68.789062 80.210938 68.957031 C 80.460938 69.039062 80.667969 68.6875 80.472656 68.507812 Z M 80.472656 68.507812 " fill-opacity="1" fill-rule="nonzero"/><path fill="#1b136a" d="M 83.296875 70.679688 C 83.167969 70.472656 83.09375 70.421875 82.261719 69.613281 C 82.175781 69.527344 82.023438 69.519531 81.941406 69.613281 C 81.855469 69.703125 81.851562 69.84375 81.941406 69.933594 C 82.738281 70.746094 82.804688 70.835938 83.015625 70.964844 C 83.191406 71.074219 83.40625 70.855469 83.296875 70.679688 Z M 83.296875 70.679688 " fill-opacity="1" fill-rule="nonzero"/><path fill="#1b136a" d="M 86.226562 78.070312 C 80.253906 77.859375 73.269531 77.457031 69.410156 72.179688 C 68.5 70.9375 67.882812 69.496094 67.703125 67.960938 C 67.679688 67.753906 67.355469 67.746094 67.371094 67.960938 C 67.582031 70.773438 69.246094 73.222656 71.421875 74.9375 C 75.605469 78.222656 81.1875 78.476562 86.226562 78.664062 C 86.609375 78.675781 86.609375 78.082031 86.226562 78.070312 Z M 86.226562 78.070312 " fill-opacity="1" fill-rule="nonzero"/><path fill="#1b136a" d="M 105.59375 64.882812 C 105.53125 64.679688 105.226562 64.664062 105.171875 64.882812 C 105.066406 65.289062 105.125 65.761719 105.09375 66.179688 C 104.984375 67.523438 104.625 68.949219 104.089844 70.183594 C 103.113281 72.441406 102.097656 73.414062 100.96875 74.628906 C 100.800781 74.808594 101.03125 75.152344 101.25 74.988281 C 103.363281 73.40625 105.332031 70.007812 105.609375 66.292969 C 105.640625 65.855469 105.726562 65.304688 105.59375 64.882812 Z M 105.59375 64.882812 " fill-opacity="1" fill-rule="nonzero"/><path fill="#1b136a" d="M 105.917969 58.34375 C 105.910156 58.222656 105.824219 58.121094 105.695312 58.121094 C 105.582031 58.121094 105.46875 58.222656 105.476562 58.34375 C 105.515625 59.148438 105.515625 59.96875 105.664062 60.761719 C 105.707031 60.988281 106.039062 60.921875 106.050781 60.710938 C 106.089844 59.921875 105.980469 59.125 105.917969 58.34375 Z M 105.917969 58.34375 " fill-opacity="1" fill-rule="nonzero"/><path fill="#1b136a" d="M 183.128906 56.792969 C 179.738281 62.386719 176.257812 67.941406 173.03125 73.632812 C 172.90625 73.859375 173.242188 74.050781 173.382812 73.835938 C 176.933594 68.339844 180.242188 62.679688 183.628906 57.085938 C 183.820312 56.765625 183.320312 56.472656 183.128906 56.792969 Z M 183.128906 56.792969 " fill-opacity="1" fill-rule="nonzero"/><path fill="#1b136a" d="M 181.726562 80.351562 C 181.15625 80.347656 176.683594 80.578125 176.652344 80.578125 C 176.351562 80.59375 176.347656 81.058594 176.652344 81.050781 C 176.898438 81.042969 181.132812 80.929688 181.726562 80.878906 C 182.058594 80.847656 182.070312 80.355469 181.726562 80.351562 Z M 181.726562 80.351562 " fill-opacity="1" fill-rule="nonzero"/><path fill="#1b136a" d="M 172.976562 61.21875 C 171.503906 61.777344 169.894531 64.015625 169.203125 65.542969 C 168.554688 66.972656 168.25 68.429688 168.230469 69.816406 C 168.222656 70.292969 168.203125 70.824219 168.382812 71.273438 C 168.480469 71.515625 168.789062 71.464844 168.824219 71.214844 C 168.914062 70.492188 168.671875 70 168.917969 68.441406 C 169.222656 66.542969 170.027344 64.808594 171.144531 63.449219 C 172.054688 62.339844 172.691406 61.980469 173.132812 61.484375 C 173.226562 61.378906 173.136719 61.160156 172.976562 61.21875 Z M 172.976562 61.21875 " fill-opacity="1" fill-rule="nonzero"/><g clip-path="url(#f5e90f6cd9)"><path fill="#1b136a" d="M 215.851562 76.070312 C 215.796875 75.796875 215.335938 75.855469 215.359375 76.136719 C 215.707031 80.074219 214.625 84.023438 211.980469 87.023438 C 209.132812 90.25 204.972656 91.574219 200.792969 91.972656 C 198.332031 92.207031 195.871094 92.0625 193.410156 92.195312 C 193.195312 92.207031 193.203125 92.496094 193.410156 92.519531 C 195.6875 92.777344 198.046875 92.746094 200.335938 92.582031 C 202.554688 92.425781 204.777344 92.0625 206.859375 91.261719 C 213.726562 88.621094 216.933594 81.554688 215.851562 76.070312 Z M 215.851562 76.070312 " fill-opacity="1" fill-rule="nonzero"/></g><path fill="#1b136a" d="M 212.789062 64.253906 C 212.574219 63.464844 211.203125 62.0625 209.898438 61.59375 C 209.707031 61.523438 209.511719 61.5 209.3125 61.453125 C 209.09375 61.402344 209.015625 61.707031 209.222656 61.785156 C 209.316406 61.820312 210.132812 62.238281 210.164062 62.253906 C 211.632812 63.050781 212.054688 64.050781 212.425781 64.460938 C 212.574219 64.625 212.84375 64.453125 212.789062 64.253906 Z M 212.789062 64.253906 " fill-opacity="1" fill-rule="nonzero"/><path fill="#1b136a" d="M 125.496094 123.371094 C 125.125 123.050781 124.652344 122.839844 124.21875 122.609375 C 121.949219 121.394531 119.585938 120.496094 117.253906 119.875 C 116.308594 119.625 115.242188 119.277344 114.253906 119.292969 C 114.039062 119.296875 114.019531 119.578125 114.207031 119.652344 C 115.015625 119.960938 118.113281 120.273438 122.664062 122.457031 C 124.453125 123.3125 124.628906 123.566406 125.25 123.796875 C 125.484375 123.886719 125.6875 123.53125 125.496094 123.371094 Z M 125.496094 123.371094 " fill-opacity="1" fill-rule="nonzero"/><path fill="#1b136a" d="M 152.761719 120.023438 C 151.933594 119.601562 150.894531 119.539062 149.976562 119.554688 C 146.835938 119.613281 143.851562 121.300781 142.527344 123.335938 C 142.332031 123.628906 142.78125 123.980469 143.019531 123.714844 C 144.871094 121.640625 147.027344 120.339844 149.976562 120.269531 C 150.878906 120.246094 151.734375 120.453125 152.625 120.535156 C 152.894531 120.5625 153 120.144531 152.761719 120.023438 Z M 152.761719 120.023438 " fill-opacity="1" fill-rule="nonzero"/><path fill="#1b136a" d="M 174.375 148.167969 C 172.996094 147.371094 171.148438 147.304688 169.59375 147.425781 C 168.035156 147.546875 166.203125 147.890625 164.917969 148.835938 C 164.675781 149.015625 164.804688 149.464844 165.140625 149.359375 C 166.410156 148.960938 168.492188 147.828125 171.925781 148.195312 C 172.714844 148.28125 173.488281 148.457031 174.277344 148.53125 C 174.476562 148.550781 174.535156 148.261719 174.375 148.167969 Z M 174.375 148.167969 " fill-opacity="1" fill-rule="nonzero"/><path fill="#1b136a" d="M 100.191406 151.484375 C 98.648438 150.109375 95.613281 149.113281 92.75 149.558594 C 92.53125 149.589844 92.582031 149.957031 92.800781 149.941406 C 94.039062 149.855469 95.320312 149.964844 96.515625 150.289062 C 97.753906 150.621094 98.796875 151.230469 99.890625 151.871094 C 100.128906 152.007812 100.402344 151.671875 100.191406 151.484375 Z M 100.191406 151.484375 " fill-opacity="1" fill-rule="nonzero"/><path fill="#e5e5ff" d="M 104.425781 155.445312 L 101.472656 128.371094 C 101.445312 128.136719 101.078125 128.132812 101.105469 128.371094 C 101.191406 129.214844 104.085938 157.25 104.316406 158.453125 C 104.355469 158.667969 104.703125 158.617188 104.695312 158.402344 C 104.671875 157.410156 104.53125 156.425781 104.425781 155.445312 Z M 104.425781 155.445312 " fill-opacity="1" fill-rule="nonzero"/><path fill="#e5e5ff" d="M 105.5 165.023438 C 105.449219 164.839844 105.128906 164.867188 105.152344 165.070312 C 105.191406 165.402344 105.417969 166.835938 105.546875 167.234375 C 105.617188 167.449219 105.984375 167.425781 105.964844 167.175781 C 105.925781 166.742188 105.59375 165.359375 105.5 165.023438 Z M 105.5 165.023438 " fill-opacity="1" fill-rule="nonzero"/><path fill="#e5e5ff" d="M 164.03125 140.105469 C 163.507812 143.410156 163.042969 147.472656 161.238281 162.242188 C 161.128906 163.148438 160.925781 164.105469 160.957031 165.019531 C 160.964844 165.308594 161.382812 165.375 161.464844 165.089844 C 161.675781 164.347656 161.710938 163.527344 161.804688 162.761719 C 162.542969 156.761719 164.222656 143.292969 164.492188 140.167969 C 164.515625 139.90625 164.074219 139.84375 164.03125 140.105469 Z M 164.03125 140.105469 " fill-opacity="1" fill-rule="nonzero"/><path fill="#1b136a" d="M 96.511719 97.410156 C 94.328125 96.414062 79.734375 90.070312 78.21875 89.425781 C 78.027344 89.34375 77.855469 89.625 78.050781 89.714844 C 79.699219 90.457031 94.1875 96.832031 96.367188 97.746094 C 96.558594 97.828125 96.699219 97.496094 96.511719 97.410156 Z M 96.511719 97.410156 " fill-opacity="1" fill-rule="nonzero"/><path fill="#1b136a" d="M 93.304688 101.503906 C 90.734375 101.558594 88.164062 101.742188 85.597656 101.867188 C 85.34375 101.878906 85.34375 102.277344 85.597656 102.265625 C 88.164062 102.140625 90.742188 102.074219 93.304688 101.882812 C 93.542969 101.863281 93.550781 101.496094 93.304688 101.503906 Z M 93.304688 101.503906 " fill-opacity="1" fill-rule="nonzero"/><path fill="#1b136a" d="M 94.898438 107.761719 C 91.671875 108.851562 88.492188 110.085938 85.296875 111.261719 C 84.964844 111.386719 85.109375 111.921875 85.445312 111.796875 C 88.636719 110.605469 91.855469 109.46875 95.015625 108.1875 C 95.273438 108.082031 95.175781 107.667969 94.898438 107.761719 Z M 94.898438 107.761719 " fill-opacity="1" fill-rule="nonzero"/><path fill="#1b136a" d="M 182.78125 109.464844 C 178.09375 107.503906 173.371094 105.617188 168.664062 103.710938 C 168.460938 103.628906 168.375 103.957031 168.574219 104.035156 C 173.273438 105.96875 177.964844 107.929688 182.6875 109.804688 C 182.902344 109.890625 182.988281 109.550781 182.78125 109.464844 Z M 182.78125 109.464844 " fill-opacity="1" fill-rule="nonzero"/><path fill="#1b136a" d="M 174.175781 114.671875 C 173.070312 113.753906 168.34375 110.167969 167.546875 109.59375 C 167.378906 109.46875 167.160156 109.75 167.324219 109.878906 C 168.105469 110.523438 172.761719 114.167969 173.925781 114.996094 C 174.113281 115.132812 174.355469 114.824219 174.175781 114.671875 Z M 174.175781 114.671875 " fill-opacity="1" fill-rule="nonzero"/><path fill="#1b136a" d="M 149.296875 42.871094 C 147.605469 45.582031 146.042969 48.378906 144.433594 51.140625 C 144.304688 51.359375 144.648438 51.558594 144.777344 51.339844 C 146.414062 48.59375 148.097656 45.871094 149.648438 43.078125 C 149.777344 42.847656 149.433594 42.648438 149.296875 42.871094 Z M 149.296875 42.871094 " fill-opacity="1" fill-rule="nonzero"/><path fill="#1b136a" d="M 139.238281 43.929688 C 139.101562 45.679688 138.945312 47.429688 138.875 49.183594 C 138.867188 49.417969 139.214844 49.410156 139.234375 49.183594 C 139.398438 47.4375 139.472656 45.679688 139.566406 43.929688 C 139.578125 43.714844 139.253906 43.71875 139.238281 43.929688 Z M 139.238281 43.929688 " fill-opacity="1" fill-rule="nonzero"/><path fill="#1b136a" d="M 155.789062 50.570312 C 155.683594 50.488281 155.550781 50.503906 155.453125 50.589844 C 154.792969 51.167969 153.5625 52.515625 152.976562 53.164062 C 152.71875 53.449219 153.128906 53.867188 153.402344 53.589844 C 154.246094 52.722656 155.113281 51.855469 155.855469 50.898438 C 155.929688 50.800781 155.878906 50.636719 155.789062 50.570312 Z M 155.789062 50.570312 " fill-opacity="1" fill-rule="nonzero"/><g fill="#e4e2dd" fill-opacity="1"><g transform="translate(14.751703, 222.134957)"><g><path d="M 20.355469 -2.722656 C 25.800781 -8.027344 24.796875 -18.632812 25.085938 -25.515625 C 25.226562 -30.53125 24.082031 -34.402344 27.523438 -36.410156 C 31.390625 -38.703125 41.855469 -38.273438 46.445312 -38.988281 C 46.011719 -29.671875 42.714844 -15.335938 49.597656 -7.308594 C 60.203125 4.875 64.363281 -17.34375 64.792969 -24.082031 C 65.652344 -34.832031 73.679688 -90.449219 64.21875 -98.332031 C 56.046875 -105.214844 46.011719 -97.332031 43.71875 -89.015625 C 40.996094 -79.269531 43.863281 -67.515625 45.011719 -57.765625 C 38.847656 -57.765625 32.683594 -58.199219 26.375 -57.910156 C 27.523438 -69.234375 33.398438 -103.78125 10.320312 -95.324219 C 1.863281 -92.171875 2.007812 -83.425781 2.148438 -75.683594 C 2.148438 -62.785156 2.582031 -49.882812 2.867188 -36.984375 C 3.011719 -27.234375 1.71875 -20.5 3.726562 -10.894531 C 5.160156 -3.441406 13.1875 4.15625 20.355469 -2.722656 Z M 20.355469 -2.722656 "/></g></g></g><g fill="#e4e2dd" fill-opacity="1"><g transform="translate(78.209005, 222.134957)"><g><path d="M 45.726562 -0.144531 C 53.46875 1.433594 51.890625 -10.75 51.746094 -15.050781 L 50.886719 -42 C 50.601562 -50.3125 48.308594 -53.179688 43.863281 -59.632812 C 33.6875 -74.253906 16.769531 -65.652344 8.886719 -53.324219 C 2.4375 -43.144531 -0.429688 -27.664062 5.160156 -16.339844 C 12.613281 -1.433594 31.25 -7.167969 39.417969 -18.347656 C 39.5625 -13.761719 39.277344 -1.578125 45.726562 -0.144531 Z M 27.523438 -32.539062 C 23.222656 -32.683594 23.796875 -36.550781 24.796875 -39.5625 C 25.945312 -42.574219 29.242188 -47.875 32.253906 -49.023438 C 36.839844 -50.886719 38.273438 -46.585938 36.410156 -42.429688 C 35.40625 -39.847656 30.960938 -32.394531 27.523438 -32.539062 Z M 27.523438 -32.539062 "/></g></g></g><g fill="#e4e2dd" fill-opacity="1"><g transform="translate(124.188462, 222.134957)"><g><path d="M 17.058594 -0.429688 C 24.941406 1.578125 34.976562 -4.445312 38.847656 -11.324219 C 42.574219 -17.488281 40.851562 -38.128906 31.105469 -24.941406 C 27.953125 -22.933594 20.785156 -10.175781 17.488281 -19.636719 C 14.476562 -28.238281 27.378906 -45.582031 34.117188 -48.019531 C 36.695312 -37.269531 51.171875 -40.851562 47.160156 -51.316406 C 46.15625 -61.78125 34.832031 -65.078125 25.945312 -63.359375 C 16.199219 -61.351562 9.460938 -55.332031 5.304688 -46.300781 C -0.429688 -33.6875 0.429688 -4.585938 17.058594 -0.429688 Z M 17.058594 -0.429688 "/></g></g></g><g fill="#e4e2dd" fill-opacity="1"><g transform="translate(166.013423, 222.134957)"><g><path d="M 15.769531 3.152344 C 18.921875 1.003906 20.355469 -3.152344 21.359375 -6.738281 C 21.789062 -8.171875 22.933594 -19.066406 23.9375 -19.496094 C 26.375 -14.046875 36.695312 2.582031 44.292969 0 C 55.761719 -3.871094 37.554688 -21.214844 34.6875 -24.511719 C 39.847656 -27.378906 53.039062 -36.550781 46.011719 -43.71875 C 39.847656 -50.027344 28.238281 -40.136719 23.9375 -36.265625 C 24.796875 -47.160156 25.945312 -58.054688 26.230469 -68.949219 C 26.519531 -77.835938 29.097656 -87.871094 26.804688 -96.613281 C 24.796875 -104.640625 13.472656 -103.207031 10.609375 -96.328125 C 6.878906 -87.871094 6.59375 -76.546875 5.304688 -67.371094 C 2.722656 -47.589844 0.859375 -27.378906 3.152344 -7.597656 C 3.871094 -2.4375 4.300781 8.3125 15.769531 3.152344 Z M 15.769531 3.152344 "/></g></g></g><g fill="#e4e2dd" fill-opacity="1"><g transform="translate(207.981588, 222.134957)"><g><path d="M 10.609375 20.066406 C 17.917969 28.382812 24.226562 15.910156 23.9375 9.746094 C 23.222656 -9.175781 19.636719 -34.402344 23.9375 -55.761719 C 25.371094 -62.929688 33.398438 -88.585938 23.796875 -92.457031 C 4.15625 -99.480469 4.011719 -59.488281 3.296875 -50.3125 C 1.71875 -30.246094 1.003906 9.460938 10.609375 20.066406 Z M 10.609375 20.066406 "/></g></g></g><g fill="#e4e2dd" fill-opacity="1"><g transform="translate(233.188163, 222.134957)"><g><path d="M 3.582031 -68.089844 C 9.03125 -58.199219 21.070312 -67.800781 14.765625 -76.976562 C 8.457031 -86.292969 -0.859375 -76.402344 3.582031 -68.089844 Z M 14.046875 -1.578125 C 17.917969 -4.300781 17.773438 -11.898438 18.492188 -15.910156 C 19.636719 -23.796875 20.355469 -31.390625 19.496094 -39.277344 C 18.921875 -45.152344 17.488281 -68.089844 6.308594 -57.335938 C 2.292969 -53.609375 3.152344 -45.726562 2.867188 -40.566406 C 2.4375 -34.117188 2.007812 -27.378906 2.292969 -20.929688 C 2.582031 -16.054688 3.011719 6.019531 14.046875 -1.578125 Z M 14.046875 -1.578125 "/></g></g></g><g fill="#e4e2dd" fill-opacity="1"><g transform="translate(247.077106, 222.134957)"><g><path d="M 18.921875 24.941406 C 24.511719 31.535156 27.953125 24.941406 28.527344 19.207031 C 29.527344 10.175781 27.234375 -2.007812 32.394531 -1.71875 C 33.972656 -2.007812 35.40625 -2.4375 36.984375 -3.011719 C 39.277344 -4.011719 41.425781 -5.445312 42.429688 -8.027344 C 44.4375 -13.042969 40.28125 -15.480469 35.691406 -16.628906 C 30.390625 -18.0625 30.960938 -17.34375 31.390625 -23.363281 C 31.964844 -31.105469 33.398438 -56.476562 47.304688 -65.078125 C 47.015625 -60.921875 45.726562 -55.902344 47.875 -52.035156 C 50.457031 -47.304688 55.332031 -47.304688 58.628906 -51.316406 C 64.503906 -58.914062 62.210938 -72.675781 55.042969 -78.410156 C 36.265625 -93.890625 19.066406 -61.351562 15.480469 -46.730469 C 13.90625 -40.28125 12.613281 -16.484375 10.175781 -14.046875 C 6.878906 -10.609375 -1.289062 -7.597656 3.726562 -1.433594 C 6.164062 1.71875 10.609375 -0.574219 12.472656 1.148438 C 13.617188 2.148438 13.472656 18.777344 18.921875 24.941406 Z M 18.921875 24.941406 "/></g></g></g><g fill="#e4e2dd" fill-opacity="1"><g transform="translate(300.792773, 222.134957)"><g><path d="M 53.46875 60.0625 C 57.910156 54.183594 57.195312 46.445312 56.90625 39.5625 C 56.476562 32.394531 57.050781 24.941406 56.90625 17.632812 C 56.90625 1.433594 56.476562 -14.90625 55.332031 -31.105469 C 55.042969 -36.410156 56.335938 -47.734375 50.742188 -50.886719 C 46.011719 -53.46875 42.714844 -49.308594 39.992188 -45.871094 C 37.554688 -42.714844 25.515625 -15.625 22.21875 -31.105469 C 20.929688 -37.269531 22.363281 -44.722656 23.652344 -50.742188 C 24.941406 -56.191406 30.246094 -64.792969 24.226562 -69.089844 C 11.609375 -78.265625 4.15625 -54.183594 2.867188 -46.445312 C 1.148438 -35.261719 2.148438 -21.5 7.742188 -11.46875 C 13.761719 -0.429688 27.09375 2.867188 36.695312 -6.308594 C 33.828125 3.296875 35.121094 70.523438 53.46875 60.0625 Z M 53.46875 60.0625 "/></g></g></g></svg>