<svg xmlns="http://www.w3.org/2000/svg" viewbox="0 0 600 600" viewBox="327.82 277.1 187.16 187.16">
	<defs/>
	<g transform="matrix(1, 0, 0, 1, 0, 0)">
		<path class="vector-data" d="M407.832390,402.123285C404.242547,401.810785 399.953484,400.974848 399.133172,398.490473 C398.269890,395.885004 402.203484,393.209223 401.144890,390.998285 C400.203484,389.041254 396.824578,390.431879 393.910515,388.545160 C388.543328,385.068598 390.062859,373.888910 390.430047,371.177973 C391.234734,365.267816 393.324578,361.154535 395.336297,357.283441 C399.492547,349.279535 404.055047,341.322504 412.461297,338.314691 C415.746453,337.138910 419.797234,337.092035 425.105828,338.814691 C443.105828,344.654535 446.031609,344.892816 450.539422,354.443598 C455.047234,363.994379 453.543328,378.521723 451.328484,385.705316 C449.117547,392.888910 442.594109,389.369379 447.398797,394.248285 C448.008172,394.865473 448.117547,395.584223 448.144890,395.646723 C449.176140,398.029535 432.265984,408.666254 430.609734,409.701410 C423.094109,406.951410 415.496453,404.424066 407.832390,402.123285 C407.832390,402.123285 407.832390,402.123285 407.832390,402.123285 ZM407.832390,402.123285" fill="#1B136A" stroke="#000000" stroke-width="0" stroke-dasharray="none" stroke-dashoffset="0" stroke-linecap="butt" stroke-linejoin="miter" stroke-miterlimit="4"/>
		<path class="vector-data" d="M430.617547,408.131098C430.617547,408.131098 415.211297,408.131098 415.211297,408.131098 C415.211297,408.131098 415.211297,384.603754 415.211297,384.603754 C415.211297,384.603754 430.617547,384.603754 430.617547,384.603754 C430.617547,384.603754 430.617547,408.131098 430.617547,408.131098 ZM430.617547,408.131098" fill="#FFAA00" stroke="#000000" stroke-width="0" stroke-dasharray="none" stroke-dashoffset="0" stroke-linecap="butt" stroke-linejoin="miter" stroke-miterlimit="4"/>
		<path class="vector-data" d="M399.816765,371.092035C400.367547,363.662348 401.586297,355.814691 407.281609,350.967035 C412.980828,346.115473 421.121453,345.732660 428.578484,346.127191 C431.426140,346.279535 434.308953,346.560785 436.953484,347.701410 C439.816765,348.939691 442.254265,351.408441 442.652703,354.490473 C442.726922,355.060785 442.633172,355.592035 442.570672,356.150629 C445.320672,362.650629 446.668328,369.881098 446.633172,376.431879 C446.605828,382.236566 444.965203,386.060785 439.117547,389.627191 C432.707390,393.533441 424.066765,395.295160 415.625359,393.599848 C410.816765,392.635004 405.773797,390.560785 402.594109,386.674066 C398.871453,382.123285 399.387078,376.888910 399.816765,371.092035 C399.816765,371.092035 399.816765,371.092035 399.816765,371.092035 ZM399.816765,371.092035" fill="#FFAA00" stroke="#000000" stroke-width="0" stroke-dasharray="none" stroke-dashoffset="0" stroke-linecap="butt" stroke-linejoin="miter" stroke-miterlimit="4"/>
		<path class="vector-data" d="M433.719109,369.720941C433.719109,369.978754 433.672234,370.228754 433.570672,370.467035 C433.473015,370.709223 433.332390,370.920160 433.148797,371.103754 C432.965203,371.287348 432.750359,371.427973 432.512078,371.525629 C432.273797,371.627191 432.023797,371.674066 431.762078,371.674066 C431.504265,371.674066 431.254265,371.627191 431.012078,371.525629 C430.773797,371.427973 430.562859,371.287348 430.379265,371.103754 C430.195672,370.920160 430.055047,370.709223 429.953484,370.467035 C429.855828,370.228754 429.805047,369.978754 429.805047,369.720941 C429.805047,369.463129 429.855828,369.213129 429.953484,368.974848 C430.055047,368.732660 430.195672,368.521723 430.379265,368.338129 C430.562859,368.154535 430.773797,368.013910 431.012078,367.916254 C431.254265,367.814691 431.504265,367.767816 431.762078,367.767816 C432.023797,367.767816 432.273797,367.814691 432.512078,367.916254 C432.750359,368.013910 432.965203,368.154535 433.148797,368.338129 C433.332390,368.521723 433.473015,368.732660 433.570672,368.974848 C433.672234,369.213129 433.719109,369.463129 433.719109,369.720941 C433.719109,369.720941 433.719109,369.720941 433.719109,369.720941 ZM433.719109,369.720941" fill="#1B136A" stroke="#000000" stroke-width="0" stroke-dasharray="none" stroke-dashoffset="0" stroke-linecap="butt" stroke-linejoin="miter" stroke-miterlimit="4"/>
		<path class="vector-data" d="M416.344109,369.545160C416.344109,369.806879 416.293328,370.052973 416.195672,370.295160 C416.094109,370.533441 415.953484,370.744379 415.769890,370.927973 C415.586297,371.111566 415.375359,371.252191 415.137078,371.349848 C414.894890,371.451410 414.644890,371.502191 414.387078,371.502191 C414.125359,371.502191 413.875359,371.451410 413.637078,371.349848 C413.398797,371.252191 413.183953,371.111566 413.000359,370.927973 C412.816765,370.744379 412.676140,370.533441 412.578484,370.295160 C412.476922,370.052973 412.430047,369.806879 412.430047,369.545160 C412.430047,369.287348 412.476922,369.037348 412.578484,368.799066 C412.676140,368.556879 412.816765,368.345941 413.000359,368.162348 C413.183953,367.982660 413.398797,367.838129 413.637078,367.740473 C413.875359,367.642816 414.125359,367.592035 414.387078,367.592035 C414.644890,367.592035 414.894890,367.642816 415.137078,367.740473 C415.375359,367.838129 415.586297,367.982660 415.769890,368.162348 C415.953484,368.345941 416.094109,368.556879 416.195672,368.799066 C416.293328,369.037348 416.344109,369.287348 416.344109,369.545160 C416.344109,369.545160 416.344109,369.545160 416.344109,369.545160 ZM416.344109,369.545160" fill="#1B136A" stroke="#000000" stroke-width="0" stroke-dasharray="none" stroke-dashoffset="0" stroke-linecap="butt" stroke-linejoin="miter" stroke-miterlimit="4"/>
		<path class="vector-data" d="M412.535515,364.252191C412.887078,364.017816 413.226922,363.865473 413.656609,363.826410 C414.707390,363.728754 416.238640,363.982660 417.058953,364.650629 C417.441765,364.959223 417.070672,365.412348 416.762078,365.291254 C416.219109,365.076410 415.297234,364.510004 413.719109,364.654535 C413.351922,364.689691 413.000359,364.670160 412.633172,364.670160 C412.394890,364.666254 412.367547,364.369379 412.535515,364.252191 C412.535515,364.252191 412.535515,364.252191 412.535515,364.252191 ZM412.535515,364.252191" fill="#1B136A" stroke="#000000" stroke-width="0" stroke-dasharray="none" stroke-dashoffset="0" stroke-linecap="butt" stroke-linejoin="miter" stroke-miterlimit="4"/>
		<path class="vector-data" d="M429.941765,365.271723C429.836297,365.267816 429.781609,365.142816 429.816765,365.052973 C429.808953,365.068598 429.824578,364.924066 429.828484,364.912348 C429.890984,364.736566 430.015984,364.658441 430.164422,364.552973 C431.340203,363.717035 433.562859,363.666254 434.324578,364.365473 C434.512078,364.537348 434.461297,364.896723 434.168328,364.920160 C433.437859,364.978754 432.668328,364.576410 431.015984,365.068598 C430.398797,365.252191 430.285515,365.365473 430.066765,365.322504 C430.043328,365.318598 429.875359,365.267816 429.941765,365.271723 C429.941765,365.271723 429.941765,365.271723 429.941765,365.271723 ZM429.941765,365.271723" fill="#1B136A" stroke="#000000" stroke-width="0" stroke-dasharray="none" stroke-dashoffset="0" stroke-linecap="butt" stroke-linejoin="miter" stroke-miterlimit="4"/>
		<path class="vector-data" d="M424.707390,373.752191C424.164422,372.885004 423.504265,372.681879 422.980828,371.572504 C422.773797,371.131098 422.652703,370.631098 422.613640,370.146723 C422.594109,369.900629 422.605828,369.658441 422.617547,369.412348 C422.633172,369.006098 422.574578,368.908441 422.598015,368.838129 C422.656609,368.635004 422.340203,368.549066 422.277703,368.752191 C422.262078,368.806879 422.199578,368.830316 422.172234,368.877191 C422.113640,368.967035 422.070672,369.088129 422.031609,369.189691 C421.961297,369.388910 421.941765,369.619379 421.922234,369.830316 C421.812859,371.029535 422.207390,372.302973 423.195672,373.377191 C423.723015,373.951410 424.480828,374.611566 423.867547,375.416254 C423.242547,376.240473 422.168328,376.029535 421.320672,376.388910 C421.047234,376.502191 421.004265,376.888910 421.320672,376.990473 C422.293328,377.299066 423.570672,376.970941 424.316765,376.279535 C425.031609,375.611566 425.234734,374.595941 424.707390,373.752191 C424.707390,373.752191 424.707390,373.752191 424.707390,373.752191 ZM424.707390,373.752191" fill="#1B136A" stroke="#000000" stroke-width="0" stroke-dasharray="none" stroke-dashoffset="0" stroke-linecap="butt" stroke-linejoin="miter" stroke-miterlimit="4"/>
		<path class="vector-data" d="M415.707390,393.025629C416.215203,392.838129 416.836297,393.220941 417.308953,393.385004 C421.402703,394.795160 424.957390,394.506098 429.019890,393.330316 C429.406609,393.217035 429.680047,393.814691 429.297234,393.994379 C425.707390,395.685785 420.805047,395.650629 416.933953,394.287348 C416.410515,394.103754 415.734734,393.943598 415.504265,393.381098 C415.441765,393.228754 415.574578,393.072504 415.707390,393.025629 C415.707390,393.025629 415.707390,393.025629 415.707390,393.025629 ZM415.707390,393.025629" fill="#1B136A" stroke="#000000" stroke-width="0" stroke-dasharray="none" stroke-dashoffset="0" stroke-linecap="butt" stroke-linejoin="miter" stroke-miterlimit="4"/>
		<path class="vector-data" d="M442.199578,374.392816C442.199578,374.752191 442.101922,375.095941 441.910515,375.431879 C441.719109,375.763910 441.445672,376.056879 441.090203,376.310785 C440.738640,376.564691 440.328484,376.763910 439.863640,376.900629 C439.402703,377.037348 438.918328,377.107660 438.418328,377.107660 C437.914422,377.107660 437.433953,377.037348 436.969109,376.900629 C436.508172,376.763910 436.098015,376.564691 435.742547,376.310785 C435.387078,376.056879 435.113640,375.763910 434.922234,375.431879 C434.730828,375.095941 434.637078,374.752191 434.637078,374.392816 C434.637078,374.029535 434.730828,373.685785 434.922234,373.353754 C435.113640,373.017816 435.387078,372.724848 435.742547,372.470941 C436.098015,372.217035 436.508172,372.021723 436.969109,371.881098 C437.433953,371.744379 437.914422,371.674066 438.418328,371.674066 C438.918328,371.674066 439.402703,371.744379 439.863640,371.881098 C440.328484,372.021723 440.738640,372.217035 441.090203,372.470941 C441.445672,372.724848 441.719109,373.017816 441.910515,373.353754 C442.101922,373.685785 442.199578,374.029535 442.199578,374.392816 C442.199578,374.392816 442.199578,374.392816 442.199578,374.392816 ZM442.199578,374.392816" fill="#FF6A00" stroke="#000000" stroke-width="0" stroke-dasharray="none" stroke-dashoffset="0" stroke-linecap="butt" stroke-linejoin="miter" stroke-miterlimit="4"/>
		<path class="vector-data" d="M412.430047,374.392816C412.430047,374.752191 412.332390,375.095941 412.140984,375.431879 C411.949578,375.763910 411.676140,376.056879 411.320672,376.310785 C410.965203,376.564691 410.558953,376.763910 410.094109,376.900629 C409.629265,377.037348 409.148797,377.107660 408.644890,377.107660 C408.144890,377.107660 407.664422,377.037348 407.199578,376.900629 C406.734734,376.763910 406.328484,376.564691 405.973015,376.310785 C405.617547,376.056879 405.344109,375.763910 405.152703,375.431879 C404.961297,375.095941 404.863640,374.752191 404.863640,374.392816 C404.863640,374.029535 404.961297,373.685785 405.152703,373.353754 C405.344109,373.017816 405.617547,372.724848 405.973015,372.470941 C406.328484,372.217035 406.734734,372.021723 407.199578,371.881098 C407.664422,371.744379 408.144890,371.674066 408.644890,371.674066 C409.148797,371.674066 409.629265,371.744379 410.094109,371.881098 C410.558953,372.021723 410.965203,372.217035 411.320672,372.470941 C411.676140,372.724848 411.949578,373.017816 412.140984,373.353754 C412.332390,373.685785 412.430047,374.029535 412.430047,374.392816 C412.430047,374.392816 412.430047,374.392816 412.430047,374.392816 ZM412.430047,374.392816" fill="#FF6A00" stroke="#000000" stroke-width="0" stroke-dasharray="none" stroke-dashoffset="0" stroke-linecap="butt" stroke-linejoin="miter" stroke-miterlimit="4"/>
		<g transform="matrix(1, 0, 0, 1, 0, 0)">
			<path class="vector-data" d="M418.797234,400.177973C415.324578,398.970941 408.402703,397.150629 400.555047,399.283441 C390.824578,401.924066 385.719109,408.994379 380.308953,416.490473 C372.195672,427.724848 366.043328,443.275629 370.562859,448.361566 C371.098015,448.963129 371.902703,449.556879 371.976922,449.611566 C375.621453,452.271723 380.000359,451.748285 384.203484,451.357660 C387.738640,451.029535 392.758172,450.650629 399.289422,450.435785 C413.644890,414.353754 409.285515,425.619379 418.797234,400.177973 C418.797234,400.177973 418.797234,400.177973 418.797234,400.177973 ZM418.797234,400.177973" fill="#4A53E2" stroke="#000000" stroke-width="0" stroke-dasharray="none" stroke-dashoffset="0" stroke-linecap="butt" stroke-linejoin="miter" stroke-miterlimit="4"/>
		</g>
		<g transform="matrix(1, 0, 0, 1, 0, 0)">
			<path class="vector-data" d="M424.566765,400.177973C428.039422,398.970941 434.961297,397.150629 442.808953,399.283441 C452.539422,401.924066 457.640984,408.994379 463.055047,416.490473 C471.168328,427.724848 477.316765,443.275629 472.801140,448.361566 C472.265984,448.963129 471.461297,449.556879 471.387078,449.611566 C467.742547,452.271723 463.363640,451.748285 459.160515,451.357660 C455.625359,451.029535 450.605828,450.650629 444.074578,450.435785 C429.719109,414.353754 434.074578,425.619379 424.566765,400.177973 C424.566765,400.177973 424.566765,400.177973 424.566765,400.177973 ZM424.566765,400.177973" fill="#4A53E2" stroke="#000000" stroke-width="0" stroke-dasharray="none" stroke-dashoffset="0" stroke-linecap="butt" stroke-linejoin="miter" stroke-miterlimit="4"/>
		</g>
		<path class="vector-data" d="M404.863640,404.279535C404.863640,404.279535 445.348015,404.279535 445.348015,404.279535 C445.348015,404.279535 445.348015,449.806879 445.348015,449.806879 C445.348015,449.806879 404.863640,449.806879 404.863640,449.806879 C404.863640,449.806879 404.863640,404.279535 404.863640,404.279535 ZM404.863640,404.279535" fill="#4A53E2" stroke="#000000" stroke-width="0" stroke-dasharray="none" stroke-dashoffset="0" stroke-linecap="butt" stroke-linejoin="miter" stroke-miterlimit="4"/>
		<path class="vector-data" d="M415.211297,399.138910C415.211297,399.138910 416.476922,408.420160 422.172234,407.998285 C427.867547,407.580316 430.617547,398.299066 430.617547,398.299066 C430.617547,398.299066 421.098015,398.037348 421.098015,398.037348 C421.098015,398.037348 415.211297,399.138910 415.211297,399.138910 ZM415.211297,399.138910" fill="#FFAA00" stroke="#000000" stroke-width="0" stroke-dasharray="none" stroke-dashoffset="0" stroke-linecap="butt" stroke-linejoin="miter" stroke-miterlimit="4"/>
		<path class="vector-data" d="M396.269890,364.842035C396.269890,364.842035 399.433953,367.060785 403.582390,364.568598 C407.726922,362.072504 410.996453,350.549066 410.996453,350.549066 C410.996453,350.549066 415.871453,347.654535 420.840203,352.443598 C425.812859,357.232660 431.019890,356.970941 431.762078,353.181879 C431.762078,353.181879 436.492547,360.881098 439.359734,356.865473 C439.359734,356.865473 439.090203,369.795160 447.371453,364.381098 C447.371453,364.381098 444.426140,357.865473 445.348015,354.232660 C446.269890,350.599848 438.519890,345.443598 428.500359,343.709223 C418.480828,341.970941 410.258172,345.338129 406.355828,348.443598 C402.453484,351.549066 396.269890,364.842035 396.269890,364.842035 C396.269890,364.842035 396.269890,364.842035 396.269890,364.842035 ZM396.269890,364.842035" fill="#1B136A" stroke="#000000" stroke-width="0" stroke-dasharray="none" stroke-dashoffset="0" stroke-linecap="butt" stroke-linejoin="miter" stroke-miterlimit="4"/>
		<path class="vector-data" d="M452.547234,369.545160C452.547234,369.885004 452.512078,370.220941 452.445672,370.552973 C452.379265,370.885004 452.281609,371.209223 452.152703,371.521723 C452.023797,371.834223 451.863640,372.135004 451.676140,372.416254 C451.484734,372.697504 451.269890,372.959223 451.031609,373.197504 C450.789422,373.435785 450.527703,373.650629 450.246453,373.838129 C449.965203,374.029535 449.668328,374.185785 449.351922,374.318598 C449.039422,374.447504 448.715203,374.545160 448.383172,374.611566 C448.047234,374.677973 447.711297,374.709223 447.371453,374.709223 C447.031609,374.709223 446.695672,374.677973 446.363640,374.611566 C446.031609,374.545160 445.707390,374.447504 445.390984,374.318598 C445.078484,374.185785 444.781609,374.029535 444.496453,373.838129 C444.215203,373.650629 443.953484,373.435785 443.715203,373.197504 C443.473015,372.959223 443.258172,372.697504 443.070672,372.416254 C442.883172,372.135004 442.723015,371.834223 442.594109,371.521723 C442.461297,371.209223 442.363640,370.885004 442.297234,370.552973 C442.230828,370.220941 442.199578,369.885004 442.199578,369.545160 C442.199578,369.205316 442.230828,368.869379 442.297234,368.537348 C442.363640,368.205316 442.461297,367.885004 442.594109,367.568598 C442.723015,367.256098 442.883172,366.959223 443.070672,366.677973 C443.258172,366.396723 443.473015,366.135004 443.715203,365.892816 C443.953484,365.654535 444.215203,365.439691 444.496453,365.252191 C444.781609,365.064691 445.078484,364.904535 445.390984,364.775629 C445.707390,364.646723 446.031609,364.549066 446.363640,364.482660 C446.695672,364.416254 447.031609,364.381098 447.371453,364.381098 C447.711297,364.381098 448.047234,364.416254 448.383172,364.482660 C448.715203,364.549066 449.039422,364.646723 449.351922,364.775629 C449.668328,364.904535 449.965203,365.064691 450.246453,365.252191 C450.527703,365.439691 450.789422,365.654535 451.031609,365.892816 C451.269890,366.135004 451.484734,366.396723 451.676140,366.677973 C451.863640,366.959223 452.023797,367.256098 452.152703,367.568598 C452.281609,367.885004 452.379265,368.205316 452.445672,368.537348 C452.512078,368.869379 452.547234,369.205316 452.547234,369.545160 C452.547234,369.545160 452.547234,369.545160 452.547234,369.545160 ZM452.547234,369.545160" fill="#FFAA00" stroke="#000000" stroke-width="0" stroke-dasharray="none" stroke-dashoffset="0" stroke-linecap="butt" stroke-linejoin="miter" stroke-miterlimit="4"/>
		<path class="vector-data" d="M403.582390,369.545160C403.582390,369.885004 403.547234,370.220941 403.480828,370.552973 C403.414422,370.885004 403.316765,371.209223 403.187859,371.521723 C403.055047,371.834223 402.898797,372.135004 402.707390,372.416254 C402.519890,372.697504 402.305047,372.959223 402.066765,373.197504 C401.824578,373.435785 401.562859,373.650629 401.281609,373.838129 C401.000359,374.029535 400.699578,374.185785 400.387078,374.318598 C400.074578,374.447504 399.750359,374.545160 399.414422,374.611566 C399.082390,374.677973 398.746453,374.709223 398.406609,374.709223 C398.066765,374.709223 397.730828,374.677973 397.398797,374.611566 C397.062859,374.545160 396.742547,374.447504 396.426140,374.318598 C396.113640,374.185785 395.816765,374.029535 395.531609,373.838129 C395.250359,373.650629 394.988640,373.435785 394.746453,373.197504 C394.508172,372.959223 394.293328,372.697504 394.105828,372.416254 C393.914422,372.135004 393.758172,371.834223 393.625359,371.521723 C393.496453,371.209223 393.398797,370.885004 393.332390,370.552973 C393.265984,370.220941 393.234734,369.885004 393.234734,369.545160 C393.234734,369.205316 393.265984,368.869379 393.332390,368.537348 C393.398797,368.205316 393.496453,367.885004 393.625359,367.568598 C393.758172,367.256098 393.914422,366.959223 394.105828,366.677973 C394.293328,366.396723 394.508172,366.135004 394.746453,365.892816 C394.988640,365.654535 395.250359,365.439691 395.531609,365.252191 C395.816765,365.064691 396.113640,364.904535 396.426140,364.775629 C396.742547,364.646723 397.062859,364.549066 397.398797,364.482660 C397.730828,364.416254 398.066765,364.381098 398.406609,364.381098 C398.746453,364.381098 399.082390,364.416254 399.414422,364.482660 C399.750359,364.549066 400.074578,364.646723 400.387078,364.775629 C400.699578,364.904535 401.000359,365.064691 401.281609,365.252191 C401.562859,365.439691 401.824578,365.654535 402.066765,365.892816 C402.305047,366.135004 402.519890,366.396723 402.707390,366.677973 C402.898797,366.959223 403.055047,367.256098 403.187859,367.568598 C403.316765,367.885004 403.414422,368.205316 403.480828,368.537348 C403.547234,368.869379 403.582390,369.205316 403.582390,369.545160 C403.582390,369.545160 403.582390,369.545160 403.582390,369.545160 ZM403.582390,369.545160" fill="#FFAA00" stroke="#000000" stroke-width="0" stroke-dasharray="none" stroke-dashoffset="0" stroke-linecap="butt" stroke-linejoin="miter" stroke-miterlimit="4"/>
		<path class="vector-data" d="M396.851922,366.385004C397.781609,365.998285 398.922234,366.318598 399.680047,366.931879 C400.473015,367.572504 400.890984,368.627191 400.812859,369.627191 C400.789422,369.877191 400.523797,369.990473 400.332390,369.826410 C399.910515,369.467035 399.164422,369.568598 398.863640,370.037348 C398.539422,370.537348 398.816765,371.166254 399.273797,371.463129 C399.531609,371.631098 399.371453,372.115473 399.051140,371.990473 C398.195672,371.650629 397.859734,370.474848 398.371453,369.713129 C398.781609,369.099848 399.582390,368.912348 400.242547,369.150629 C400.176140,368.459223 399.859734,367.810785 399.316765,367.349848 C398.637078,366.771723 397.762078,366.677973 396.902703,366.763910 C396.664422,366.787348 396.668328,366.463129 396.851922,366.385004 C396.851922,366.385004 396.851922,366.385004 396.851922,366.385004 ZM396.851922,366.385004" fill="#1B136A" stroke="#000000" stroke-width="0" stroke-dasharray="none" stroke-dashoffset="0" stroke-linecap="butt" stroke-linejoin="miter" stroke-miterlimit="4"/>
		<path class="vector-data" d="M449.316765,366.385004C448.383172,365.998285 447.246453,366.318598 446.484734,366.931879 C445.695672,367.572504 445.277703,368.627191 445.355828,369.627191 C445.375359,369.877191 445.644890,369.990473 445.836297,369.826410 C446.258172,369.467035 447.004265,369.568598 447.305047,370.037348 C447.625359,370.537348 447.348015,371.166254 446.894890,371.463129 C446.637078,371.631098 446.793328,372.115473 447.113640,371.990473 C447.969109,371.650629 448.308953,370.474848 447.797234,369.713129 C447.383172,369.099848 446.586297,368.912348 445.926140,369.150629 C445.988640,368.459223 446.308953,367.810785 446.848015,367.349848 C447.531609,366.771723 448.406609,366.677973 449.265984,366.763910 C449.500359,366.787348 449.496453,366.463129 449.316765,366.385004 C449.316765,366.385004 449.316765,366.385004 449.316765,366.385004 ZM449.316765,366.385004" fill="#1B136A" stroke="#000000" stroke-width="0" stroke-dasharray="none" stroke-dashoffset="0" stroke-linecap="butt" stroke-linejoin="miter" stroke-miterlimit="4"/>
		<path class="vector-data" d="M412.430047,345.127191C407.058953,353.861566 404.164422,360.974848 402.558953,365.654535 C402.160515,366.810785 401.426140,369.209223 400.765984,372.388910 C399.308953,379.427973 397.996453,385.744379 400.871453,390.072504 C402.965203,393.220941 405.574578,392.760004 410.047234,395.334223 C414.051140,397.642816 419.035515,402.088129 422.805047,411.545160 C416.019890,408.705316 409.238640,405.865473 402.453484,403.025629 C402.453484,403.025629 396.375359,401.439691 397.121453,395.806879 C397.867547,390.177973 387.137078,392.283441 387.203484,380.021723 C387.269890,367.756098 397.973015,346.232660 407.250359,338.443598 C416.531609,330.654535 431.348015,337.338129 439.887078,341.549066 C448.430047,345.760004 453.781609,352.338129 454.480828,360.076410 C455.180047,367.810785 455.609734,384.388910 452.547234,388.756098 C449.484734,393.123285 449.906609,391.662348 451.805047,395.287348 C453.703484,398.912348 433.246453,405.385004 433.246453,405.385004 C433.246453,405.385004 421.707390,410.650629 421.707390,410.650629 C422.191765,408.287348 423.246453,404.681879 425.863640,401.228754 C432.473015,392.510004 441.086297,395.263910 445.160515,388.177973 C447.363640,384.345941 446.101922,378.150629 443.578484,365.760004 C443.265984,364.217035 442.699578,361.799066 440.836297,359.549066 C439.703484,358.174066 438.769890,358.162348 438.015984,356.994379 C436.203484,354.193598 437.203484,350.904535 434.637078,346.916254 C431.242547,341.654535 420.875359,338.701410 412.430047,345.127191 C412.430047,345.127191 412.430047,345.127191 412.430047,345.127191 ZM412.430047,345.127191" fill="#4A53E2" stroke="#000000" stroke-width="0" stroke-dasharray="none" stroke-dashoffset="0" stroke-linecap="butt" stroke-linejoin="miter" stroke-miterlimit="4"/>
		<path class="vector-data" d="M450.375359,451.435785C450.375359,451.435785 391.308953,451.435785 391.308953,451.435785 C391.308953,451.435785 387.203484,407.861566 387.203484,407.861566 C387.203484,407.861566 454.480828,407.861566 454.480828,407.861566 C454.480828,407.861566 450.375359,451.435785 450.375359,451.435785 ZM450.375359,451.435785" fill="#1B136A" stroke="#000000" stroke-width="0" stroke-dasharray="none" stroke-dashoffset="0" stroke-linecap="butt" stroke-linejoin="miter" stroke-miterlimit="4"/>
		<g transform="matrix(1, 0, 0, 1, 0, 0)">
			<path class="vector-data" d="M386.015984,446.857660C386.015984,446.857660 455.668328,446.857660 455.668328,446.857660 C455.668328,446.857660 455.668328,451.677973 455.668328,451.677973 C455.668328,451.677973 386.015984,451.677973 386.015984,451.677973 C386.015984,451.677973 386.015984,446.857660 386.015984,446.857660 ZM386.015984,446.857660" fill="#1B136A" stroke="#000000" stroke-width="0" stroke-dasharray="none" stroke-dashoffset="0" stroke-linecap="butt" stroke-linejoin="miter" stroke-miterlimit="4"/>
		</g>
		<path class="vector-data" d="M446.140984,356.931879C445.562859,355.154535 444.668328,353.513910 443.512078,352.049066 C445.281609,348.545160 443.562859,344.334223 439.605828,343.177973 C438.656609,342.900629 437.672234,342.779535 436.730828,342.474848 C434.601922,341.783441 434.012078,339.939691 432.199578,339.103754 C429.996453,338.092035 427.254265,338.717035 425.734734,340.568598 C424.695672,339.502191 423.219109,339.025629 421.719109,339.072504 C418.758172,339.170160 416.496453,341.209223 414.500359,343.314691 C413.812859,344.041254 413.035515,344.771723 412.598015,345.685785 C411.801140,347.345941 412.398797,349.060785 414.230828,349.435785 C415.926140,349.783441 417.887078,349.099848 418.867547,350.248285 C419.039422,350.455316 419.273797,350.400629 419.414422,350.244379 C420.082390,351.049066 420.765984,351.838129 421.457390,352.623285 C424.418328,355.998285 426.191765,358.017816 428.492547,358.521723 C429.773797,358.799066 431.242547,358.603754 432.183953,357.619379 C432.742547,357.033441 433.078484,356.244379 433.078484,355.459223 C434.023797,356.627191 434.598015,358.135004 436.000359,358.861566 C437.090203,359.424066 438.223015,359.174066 438.894890,358.498285 C439.109734,359.771723 439.430047,361.045160 440.152703,362.127191 C441.953484,364.810785 445.890984,364.849848 446.668328,361.845941 C447.082390,360.263910 446.637078,358.447504 446.140984,356.931879 C446.140984,356.931879 446.140984,356.931879 446.140984,356.931879 ZM446.140984,356.931879" fill="#1B136A" stroke="#000000" stroke-width="0" stroke-dasharray="none" stroke-dashoffset="0" stroke-linecap="butt" stroke-linejoin="miter" stroke-miterlimit="4"/>
		<path class="vector-data" d="M419.707390,371.131098C419.707390,371.494379 419.672234,371.853754 419.601922,372.209223 C419.531609,372.564691 419.426140,372.908441 419.285515,373.244379 C419.148797,373.580316 418.976922,373.896723 418.773797,374.201410 C418.574578,374.502191 418.344109,374.779535 418.086297,375.037348 C417.832390,375.291254 417.551140,375.521723 417.250359,375.720941 C416.945672,375.924066 416.629265,376.092035 416.293328,376.232660 C415.957390,376.369379 415.613640,376.474848 415.254265,376.545160 C414.898797,376.615473 414.539422,376.654535 414.176140,376.654535 C413.812859,376.654535 413.453484,376.615473 413.098015,376.545160 C412.742547,376.474848 412.394890,376.369379 412.058953,376.232660 C411.726922,376.092035 411.406609,375.924066 411.105828,375.720941 C410.801140,375.521723 410.523797,375.291254 410.265984,375.037348 C410.008172,374.779535 409.781609,374.502191 409.578484,374.201410 C409.375359,373.896723 409.207390,373.580316 409.066765,373.244379 C408.930047,372.908441 408.824578,372.564691 408.754265,372.209223 C408.683953,371.853754 408.644890,371.494379 408.644890,371.131098 C408.644890,370.771723 408.683953,370.412348 408.754265,370.056879 C408.824578,369.701410 408.930047,369.353754 409.066765,369.021723 C409.207390,368.685785 409.375359,368.369379 409.578484,368.064691 C409.781609,367.763910 410.008172,367.486566 410.265984,367.228754 C410.523797,366.974848 410.801140,366.744379 411.105828,366.541254 C411.406609,366.342035 411.726922,366.170160 412.058953,366.033441 C412.394890,365.892816 412.742547,365.791254 413.098015,365.717035 C413.453484,365.646723 413.812859,365.611566 414.176140,365.611566 C414.539422,365.611566 414.898797,365.646723 415.254265,365.717035 C415.613640,365.791254 415.957390,365.892816 416.293328,366.033441 C416.629265,366.170160 416.945672,366.342035 417.250359,366.541254 C417.551140,366.744379 417.832390,366.974848 418.086297,367.228754 C418.344109,367.486566 418.574578,367.763910 418.773797,368.064691 C418.976922,368.369379 419.148797,368.685785 419.285515,369.021723 C419.426140,369.353754 419.531609,369.701410 419.601922,370.056879 C419.672234,370.412348 419.707390,370.771723 419.707390,371.131098 C419.707390,371.131098 419.707390,371.131098 419.707390,371.131098 ZM419.707390,371.131098" fill="#1B136A" stroke="#000000" stroke-width="0" stroke-dasharray="none" stroke-dashoffset="0" stroke-linecap="butt" stroke-linejoin="miter" stroke-miterlimit="4"/>
		<path class="vector-data" d="M436.285515,371.131098C436.285515,371.494379 436.250359,371.853754 436.180047,372.209223 C436.109734,372.564691 436.004265,372.908441 435.863640,373.244379 C435.726922,373.580316 435.555047,373.896723 435.355828,374.201410 C435.152703,374.502191 434.922234,374.779535 434.668328,375.037348 C434.410515,375.291254 434.129265,375.521723 433.828484,375.720941 C433.527703,375.924066 433.207390,376.092035 432.871453,376.232660 C432.535515,376.369379 432.191765,376.474848 431.836297,376.545160 C431.480828,376.615473 431.117547,376.654535 430.758172,376.654535 C430.394890,376.654535 430.031609,376.615473 429.676140,376.545160 C429.320672,376.474848 428.976922,376.369379 428.640984,376.232660 C428.305047,376.092035 427.984734,375.924066 427.683953,375.720941 C427.383172,375.521723 427.101922,375.291254 426.844109,375.037348 C426.590203,374.779535 426.359734,374.502191 426.156609,374.201410 C425.957390,373.896723 425.785515,373.580316 425.648797,373.244379 C425.508172,372.908441 425.402703,372.564691 425.332390,372.209223 C425.262078,371.853754 425.226922,371.494379 425.226922,371.131098 C425.226922,370.771723 425.262078,370.412348 425.332390,370.056879 C425.402703,369.701410 425.508172,369.353754 425.648797,369.021723 C425.785515,368.685785 425.957390,368.369379 426.156609,368.064691 C426.359734,367.763910 426.590203,367.486566 426.844109,367.228754 C427.101922,366.974848 427.383172,366.744379 427.683953,366.541254 C427.984734,366.342035 428.305047,366.170160 428.640984,366.033441 C428.976922,365.892816 429.320672,365.791254 429.676140,365.717035 C430.031609,365.646723 430.394890,365.611566 430.758172,365.611566 C431.117547,365.611566 431.480828,365.646723 431.836297,365.717035 C432.191765,365.791254 432.535515,365.892816 432.871453,366.033441 C433.207390,366.170160 433.527703,366.342035 433.828484,366.541254 C434.129265,366.744379 434.410515,366.974848 434.668328,367.228754 C434.922234,367.486566 435.152703,367.763910 435.355828,368.064691 C435.555047,368.369379 435.726922,368.685785 435.867547,369.021723 C436.004265,369.353754 436.109734,369.701410 436.180047,370.056879 C436.250359,370.412348 436.285515,370.771723 436.285515,371.131098 C436.285515,371.131098 436.285515,371.131098 436.285515,371.131098 ZM436.285515,371.131098" fill="#1B136A" stroke="#000000" stroke-width="0" stroke-dasharray="none" stroke-dashoffset="0" stroke-linecap="butt" stroke-linejoin="miter" stroke-miterlimit="4"/>
		<path class="vector-data" d="M426.973015,371.342035C426.562859,370.724848 425.562859,370.369379 424.883172,370.142816 C424.062859,369.869379 423.180047,369.740473 422.312859,369.787348 C420.066765,369.912348 418.246453,371.138910 417.973015,371.705316 C417.879265,371.904535 418.039422,372.174066 418.277703,372.099848 C418.715203,371.970941 419.113640,371.486566 420.191765,371.049066 C421.598015,370.470941 423.113640,370.424066 424.535515,370.865473 C425.789422,371.256098 426.070672,371.705316 426.582390,371.849848 C426.859734,371.931879 427.144890,371.595941 426.973015,371.342035 C426.973015,371.342035 426.973015,371.342035 426.973015,371.342035 ZM426.973015,371.342035" fill="#1B136A" stroke="#000000" stroke-width="0" stroke-dasharray="none" stroke-dashoffset="0" stroke-linecap="butt" stroke-linejoin="miter" stroke-miterlimit="4"/>
		<path class="vector-data" d="M420.269890,383.412348C420.269890,383.838129 420.211297,384.244379 420.094109,384.635004 C419.973015,385.029535 419.805047,385.373285 419.590203,385.674066 C419.371453,385.974848 419.121453,386.205316 418.836297,386.369379 C418.551140,386.529535 418.254265,386.611566 417.945672,386.611566 C417.637078,386.611566 417.340203,386.529535 417.055047,386.369379 C416.769890,386.205316 416.519890,385.974848 416.301140,385.674066 C416.082390,385.373285 415.914422,385.029535 415.797234,384.635004 C415.680047,384.244379 415.621453,383.838129 415.621453,383.412348 C415.621453,382.986566 415.680047,382.580316 415.797234,382.189691 C415.914422,381.795160 416.082390,381.451410 416.301140,381.150629 C416.519890,380.849848 416.769890,380.619379 417.055047,380.455316 C417.340203,380.295160 417.637078,380.213129 417.945672,380.213129 C418.254265,380.213129 418.551140,380.295160 418.836297,380.455316 C419.121453,380.619379 419.371453,380.849848 419.590203,381.150629 C419.805047,381.451410 419.973015,381.795160 420.094109,382.189691 C420.211297,382.580316 420.269890,382.986566 420.269890,383.412348 C420.269890,383.412348 420.269890,383.412348 420.269890,383.412348 ZM420.269890,383.412348" fill="#1B136A" stroke="#000000" stroke-width="0" stroke-dasharray="none" stroke-dashoffset="0" stroke-linecap="butt" stroke-linejoin="miter" stroke-miterlimit="4"/>
		<g transform="matrix(1, 0, 0, 1, 0, 0)"/>
		<g transform="matrix(1, 0, 0, 1, 0, 0)"/>
		<path class="vector-data" d="M413.437859,404.967035C413.066765,404.646723 412.594109,404.435785 412.160515,404.205316 C409.890984,402.990473 407.527703,402.092035 405.195672,401.470941 C404.250359,401.220941 403.183953,400.873285 402.195672,400.888910 C401.980828,400.892816 401.961297,401.174066 402.148797,401.248285 C402.957390,401.556879 406.055047,401.869379 410.605828,404.052973 C412.394890,404.908441 412.570672,405.162348 413.191765,405.392816 C413.426140,405.482660 413.629265,405.127191 413.437859,404.967035 C413.437859,404.967035 413.437859,404.967035 413.437859,404.967035 ZM413.437859,404.967035" fill="#1B136A" stroke="#000000" stroke-width="0" stroke-dasharray="none" stroke-dashoffset="0" stroke-linecap="butt" stroke-linejoin="miter" stroke-miterlimit="4"/>
		<path class="vector-data" d="M440.703484,401.619379C439.875359,401.197504 438.836297,401.135004 437.918328,401.150629 C434.777703,401.209223 431.793328,402.896723 430.469109,404.931879 C430.273797,405.224848 430.723015,405.576410 430.961297,405.310785 C432.812859,403.236566 434.969109,401.935785 437.918328,401.865473 C438.820672,401.842035 439.676140,402.049066 440.566765,402.131098 C440.836297,402.158441 440.941765,401.740473 440.703484,401.619379 C440.703484,401.619379 440.703484,401.619379 440.703484,401.619379 ZM440.703484,401.619379" fill="#1B136A" stroke="#000000" stroke-width="0" stroke-dasharray="none" stroke-dashoffset="0" stroke-linecap="butt" stroke-linejoin="miter" stroke-miterlimit="4"/>
		<path class="vector-data" d="M462.316765,429.763910C460.937859,428.967035 459.090203,428.900629 457.535515,429.021723 C455.976922,429.142816 454.144890,429.486566 452.859734,430.431879 C452.617547,430.611566 452.746453,431.060785 453.082390,430.955316 C454.351922,430.556879 456.433953,429.424066 459.867547,429.791254 C460.656609,429.877191 461.430047,430.052973 462.219109,430.127191 C462.418328,430.146723 462.476922,429.857660 462.316765,429.763910 C462.316765,429.763910 462.316765,429.763910 462.316765,429.763910 ZM462.316765,429.763910" fill="#1B136A" stroke="#000000" stroke-width="0" stroke-dasharray="none" stroke-dashoffset="0" stroke-linecap="butt" stroke-linejoin="miter" stroke-miterlimit="4"/>
		<path class="vector-data" d="M388.133172,433.080316C386.590203,431.705316 383.555047,430.709223 380.691765,431.154535 C380.473015,431.185785 380.523797,431.552973 380.742547,431.537348 C381.980828,431.451410 383.262078,431.560785 384.457390,431.885004 C385.695672,432.217035 386.738640,432.826410 387.832390,433.467035 C388.070672,433.603754 388.344109,433.267816 388.133172,433.080316 C388.133172,433.080316 388.133172,433.080316 388.133172,433.080316 ZM388.133172,433.080316" fill="#1B136A" stroke="#000000" stroke-width="0" stroke-dasharray="none" stroke-dashoffset="0" stroke-linecap="butt" stroke-linejoin="miter" stroke-miterlimit="4"/>
		<path class="vector-data" d="M392.367547,437.041254C392.367547,437.041254 389.414422,409.967035 389.414422,409.967035 C389.387078,409.732660 389.019890,409.728754 389.047234,409.967035 C389.133172,410.810785 392.027703,438.845941 392.258172,440.049066 C392.297234,440.263910 392.644890,440.213129 392.637078,439.998285 C392.613640,439.006098 392.473015,438.021723 392.367547,437.041254 C392.367547,437.041254 392.367547,437.041254 392.367547,437.041254 ZM392.367547,437.041254" fill="#E5E5FF" stroke="#000000" stroke-width="0" stroke-dasharray="none" stroke-dashoffset="0" stroke-linecap="butt" stroke-linejoin="miter" stroke-miterlimit="4"/>
		<path class="vector-data" d="M393.441765,446.619379C393.390984,446.435785 393.070672,446.463129 393.094109,446.666254 C393.133172,446.998285 393.359734,448.431879 393.488640,448.830316 C393.558953,449.045160 393.926140,449.021723 393.906609,448.771723 C393.867547,448.338129 393.535515,446.955316 393.441765,446.619379 C393.441765,446.619379 393.441765,446.619379 393.441765,446.619379 ZM393.441765,446.619379" fill="#E5E5FF" stroke="#000000" stroke-width="0" stroke-dasharray="none" stroke-dashoffset="0" stroke-linecap="butt" stroke-linejoin="miter" stroke-miterlimit="4"/>
		<path class="vector-data" d="M451.973015,421.701410C451.449578,425.006098 450.984734,429.068598 449.180047,443.838129 C449.070672,444.744379 448.867547,445.701410 448.898797,446.615473 C448.906609,446.904535 449.324578,446.970941 449.406609,446.685785 C449.617547,445.943598 449.652703,445.123285 449.746453,444.357660 C450.484734,438.357660 452.164422,424.888910 452.433953,421.763910 C452.457390,421.502191 452.015984,421.439691 451.973015,421.701410 C451.973015,421.701410 451.973015,421.701410 451.973015,421.701410 ZM451.973015,421.701410" fill="#E5E5FF" stroke="#000000" stroke-width="0" stroke-dasharray="none" stroke-dashoffset="0" stroke-linecap="butt" stroke-linejoin="miter" stroke-miterlimit="4"/>

	</g>
	<path class="vector-data" d="M421.399725,302.104119C459.242376,302.104119 489.981992,332.843735 489.981992,370.686386 C489.981992,408.529036 459.242376,439.268652 421.399725,439.268652 C383.557075,439.268652 352.817459,408.529036 352.817459,370.686386 C352.817459,332.843735 383.557075,302.104119 421.399725,302.104119 Z" fill="none" stroke="#FFFFFF" stroke-width="50" stroke-dasharray="none" stroke-dashoffset="0" stroke-linecap="butt" stroke-linejoin="miter" stroke-miterlimit="4"/>
	<script xmlns="" id="bw-fido2-page-script"/>
</svg>